<svg width="18" height="19" viewBox="0 0 18 19" fill="none" xmlns="http://www.w3.org/2000/svg">
<path d="M1 5.5V14.3C1 15.4201 1 15.9798 1.21799 16.4076C1.40973 16.7839 1.71547 17.0905 2.0918 17.2822C2.5192 17.5 3.07899 17.5 4.19691 17.5H13.8031C14.921 17.5 15.48 17.5 15.9074 17.2822C16.2837 17.0905 16.5905 16.7839 16.7822 16.4076C17 15.9802 17 15.421 17 14.3031V5.5M1 5.5H17M1 5.5L2.36518 3.11089C2.7002 2.5246 2.86768 2.23151 3.10325 2.01807C3.31184 1.82907 3.55859 1.68605 3.82617 1.59871C4.12861 1.5 4.46623 1.5 5.14258 1.5H12.8571C13.5334 1.5 13.8723 1.5 14.1747 1.59871C14.4423 1.68605 14.6879 1.82907 14.8965 2.01807C15.1322 2.23168 15.3002 2.52507 15.6357 3.1123L17 5.5M9 8.5V14.5M9 14.5L12 12.5M9 14.5L6 12.5" stroke="#F9F9F9" stroke-width="1.5" stroke-linecap="round" stroke-linejoin="round"/>
</svg>
