<svg width="24" height="25" viewBox="0 0 24 25" fill="none" xmlns="http://www.w3.org/2000/svg">
<path d="M4 8.5V17.3C4 18.4201 4 18.9798 4.21799 19.4076C4.40973 19.7839 4.71547 20.0905 5.0918 20.2822C5.5192 20.5 6.07899 20.5 7.19691 20.5H16.8031C17.921 20.5 18.48 20.5 18.9074 20.2822C19.2837 20.0905 19.5905 19.7839 19.7822 19.4076C20 18.9802 20 18.421 20 17.3031V8.5M4 8.5H20M4 8.5L5.36518 6.11089C5.7002 5.5246 5.86768 5.23151 6.10325 5.01807C6.31184 4.82907 6.55859 4.68605 6.82617 4.59871C7.12861 4.5 7.46623 4.5 8.14258 4.5H15.8571C16.5334 4.5 16.8723 4.5 17.1747 4.59871C17.4423 4.68605 17.6879 4.82907 17.8965 5.01807C18.1322 5.23168 18.3002 5.52507 18.6357 6.1123L20 8.5M12 11.5V17.5M12 17.5L15 15.5M12 17.5L9 15.5" stroke="#375FFF" stroke-width="1.5" stroke-linecap="round" stroke-linejoin="round"/>
</svg>
