<svg width="45" height="44" viewBox="0 0 45 44" fill="none" xmlns="http://www.w3.org/2000/svg">
<path d="M26.8158 14.6316H26.8311M23 34.4737H13.0789C11.8645 34.4737 10.6999 33.9913 9.84114 33.1325C8.98242 32.2738 8.5 31.1091 8.5 29.8947V11.5789C8.5 10.3645 8.98242 9.19986 9.84114 8.34114C10.6999 7.48242 11.8645 7 13.0789 7H31.3947C32.6091 7 33.7738 7.48242 34.6325 8.34114C35.4913 9.19986 35.9737 10.3645 35.9737 11.5789V21.5M8.5 26.8421L16.1316 19.2105C17.548 17.8475 19.2941 17.8475 20.7105 19.2105L26.0526 24.5526M25.2895 23.7895L26.8158 22.2632C27.8522 21.2665 29.0641 20.9978 30.1951 21.4603M32.9211 36V26.8421M32.9211 26.8421L37.5 31.4211M32.9211 26.8421L28.3421 31.4211" stroke="#666666" stroke-width="1.5" stroke-linecap="round" stroke-linejoin="round"/>
</svg>
