<svg width="40" height="40" viewBox="0 0 40 40" fill="none" xmlns="http://www.w3.org/2000/svg">
<path d="M23.75 16.5L18.75 21.5L16.25 19M30 17.9563C30 26.1666 23.7899 29.8476 21.1572 31.0392L21.1539 31.0407C20.877 31.166 20.7382 31.2288 20.4236 31.2829C20.2243 31.3171 19.7769 31.3171 19.5777 31.2829C19.2618 31.2286 19.1215 31.1656 18.8424 31.0392C16.2097 29.8476 10 26.1666 10 17.9563V13.0002C10 11.6001 10 10.8995 10.2725 10.3647C10.5122 9.89434 10.8943 9.51217 11.3647 9.27248C11.8995 9 12.6001 9 14.0002 9H26.0002C27.4004 9 28.0995 9 28.6342 9.27248C29.1046 9.51217 29.4881 9.89434 29.7278 10.3647C30 10.899 30 11.5987 30 12.9961V17.9563Z" stroke="#3A3A3A" stroke-linecap="round" stroke-linejoin="round"/>
</svg>
