<svg width="40" height="40" viewBox="0 0 40 40" fill="none" xmlns="http://www.w3.org/2000/svg">
<path d="M22.5714 8V13.3333C22.5714 13.687 22.7069 14.0261 22.948 14.2761C23.1891 14.5262 23.5162 14.6667 23.8571 14.6667H29M22.5714 8H13.5714C12.8894 8 12.2354 8.28095 11.7532 8.78105C11.2709 9.28115 11 9.95942 11 10.6667V29.3333C11 30.0406 11.2709 30.7189 11.7532 31.219C12.2354 31.719 12.8894 32 13.5714 32H26.4286C27.1106 32 27.7646 31.719 28.2468 31.219C28.7291 30.7189 29 30.0406 29 29.3333V14.6667M22.5714 8L29 14.6667M18.7143 22.6667H20V28H21.2857M20 18.6667H20.0129" stroke="#3A3A3A" stroke-linecap="round" stroke-linejoin="round"/>
</svg>
