<svg width="40" height="40" viewBox="0 0 40 40" fill="none" xmlns="http://www.w3.org/2000/svg">
<path d="M19.8947 26.5281L16.2632 24.6114M16.2632 24.6114L9 28.4448V11.8334L16.2632 8M16.2632 24.6114V8M16.2632 8L23.5263 11.8334M23.5263 11.8334L30.7895 8V17.5835M23.5263 11.8334V18.8613M28.3684 25.8892V25.902M30.9359 28.599C31.4439 28.0629 31.7899 27.3799 31.9301 26.6363C32.0704 25.8926 31.9985 25.1218 31.7237 24.4213C31.4488 23.7207 30.9834 23.122 30.3861 22.7007C29.7889 22.2794 29.0867 22.0546 28.3684 22.0546C27.6501 22.0546 26.9479 22.2794 26.3507 22.7007C25.7535 23.122 25.288 23.7207 25.0132 24.4213C24.7383 25.1218 24.6665 25.8926 24.8067 26.6363C24.9469 27.3799 25.2929 28.0629 25.8009 28.599C26.3069 29.1344 27.1627 29.9343 28.3684 31C29.6407 29.8628 30.4977 29.0629 30.9359 28.599Z" stroke="#3A3A3A" stroke-linecap="round" stroke-linejoin="round"/>
</svg>
