<svg width="40" height="40" viewBox="0 0 40 40" fill="none" xmlns="http://www.w3.org/2000/svg">
<path d="M17.5864 21.208C18.1046 21.9016 18.7659 22.4755 19.5252 22.8907C20.2845 23.306 21.1242 23.5529 21.9872 23.6148C22.8502 23.6767 23.7165 23.552 24.5272 23.2493C25.3379 22.9466 26.074 22.4729 26.6857 21.8604L30.3062 18.2363C31.4053 17.0971 32.0135 15.5713 31.9998 13.9876C31.986 12.4039 31.3514 10.889 30.2327 9.76911C29.1139 8.64922 27.6005 8.01399 26.0184 8.00023C24.4363 7.98647 22.912 8.59528 21.774 9.69554L19.6983 11.7613M22.4136 18.792C21.8954 18.0984 21.2341 17.5245 20.4748 17.1093C19.7155 16.694 18.8758 16.4471 18.0128 16.3852C17.1498 16.3233 16.2835 16.448 15.4728 16.7507C14.6621 17.0534 13.926 17.5271 13.3143 18.1396L9.69383 21.7637C8.59468 22.9029 7.98648 24.4287 8.00023 26.0124C8.01398 27.5961 8.64857 29.111 9.76733 30.2309C10.8861 31.3508 12.3995 31.986 13.9816 31.9998C15.5637 32.0135 17.0879 31.4047 18.226 30.3045L20.2896 28.2387" stroke="#3A3A3A" stroke-linecap="round" stroke-linejoin="round"/>
</svg>
