<svg width="1549" height="1134" viewBox="0 0 1549 1134" fill="none" xmlns="http://www.w3.org/2000/svg">
<rect x="66.4564" y="-488.6" width="2916" height="107.66" transform="rotate(36.896 66.4564 -488.6)" fill="#375FFF"/>
<rect x="66.4564" y="-488.6" width="2916" height="107.66" transform="rotate(36.896 66.4564 -488.6)" stroke="white" stroke-width="2"/>
<path d="M538.751 -45.4281C536.755 -46.9266 535.226 -48.6745 534.165 -50.6718C533.129 -52.6498 532.512 -54.7333 532.315 -56.9222C532.162 -59.1175 532.381 -61.2742 532.97 -63.3923C533.579 -65.536 534.537 -67.478 535.843 -69.2182C537.207 -71.0352 538.837 -72.5128 540.732 -73.6512C542.671 -74.7959 544.71 -75.5662 546.848 -75.962C549.031 -76.3642 551.207 -76.3312 553.376 -75.863C555.59 -75.4012 557.67 -74.4403 559.615 -72.9802C561.585 -71.5009 563.079 -69.7594 564.095 -67.7558C565.138 -65.7329 565.735 -63.6238 565.888 -61.4285C566.04 -59.2333 565.822 -57.0766 565.232 -54.9584C564.642 -52.8403 563.694 -50.9111 562.388 -49.1709C561.043 -47.3795 559.414 -45.9019 557.499 -44.738C555.605 -43.5996 553.566 -42.8293 551.383 -42.4271C549.245 -42.0313 547.079 -42.0771 544.884 -42.5645C542.715 -43.0327 540.67 -43.9872 538.751 -45.4281ZM541.218 -65.1838C540.334 -64.0066 539.658 -62.7333 539.19 -61.3639C538.722 -59.9945 538.495 -58.625 538.507 -57.2554C538.564 -55.8922 538.886 -54.5896 539.475 -53.3478C540.108 -52.1123 541.051 -51.0238 542.305 -50.0825C543.585 -49.1219 544.916 -48.5229 546.298 -48.2855C547.699 -48.0736 549.059 -48.153 550.378 -48.5236C551.716 -48.9198 552.954 -49.5304 554.094 -50.3555C555.278 -51.187 556.284 -52.1529 557.11 -53.2533C557.993 -54.4305 558.647 -55.7006 559.07 -57.0636C559.538 -58.433 559.743 -59.7993 559.686 -61.1626C559.674 -62.5322 559.351 -63.8347 558.718 -65.0702C558.13 -66.3121 557.222 -67.3941 555.993 -68.3162C554.688 -69.296 553.335 -69.8919 551.933 -70.1037C550.577 -70.3219 549.239 -70.2457 547.92 -69.8751C546.602 -69.5045 545.36 -68.9163 544.195 -68.1104C543.055 -67.2853 542.063 -66.3098 541.218 -65.1838ZM555.976 -32.7969L571.077 -52.9117L576.22 -49.0501L564.492 -33.4266L570.902 -28.6141L582.631 -44.2376L587.813 -40.3472L576.085 -24.7238L582.457 -19.9401L594.186 -35.5635L599.329 -31.702L584.229 -11.5873L555.976 -32.7969ZM589.311 -7.77188L604.383 -27.8482L609.527 -23.9867L599.614 -10.7816L618.577 -17.253L623.26 -13.7372L608.159 6.37749L603.016 2.51595L612.698 -10.382L594.11 -4.1697L589.311 -7.77188ZM622.968 18.0947C619.513 15.5012 617.649 12.5211 617.375 9.15459C617.146 5.78168 618.502 2.1375 621.441 -1.77796C623.285 -4.23473 625.059 -6.14432 626.762 -7.50674C628.465 -8.86917 630.152 -9.7836 631.823 -10.25C633.493 -10.7165 635.228 -10.8149 637.026 -10.5453C638.85 -10.2564 640.76 -9.68278 642.756 -8.82427L653.036 -4.52839L649.972 -0.286583L639.778 -4.45762C638.281 -5.0215 636.832 -5.32936 635.43 -5.3812C634.048 -5.45863 632.7 -5.20964 631.388 -4.63424C630.121 -4.06522 628.853 -3.09619 627.585 -1.72717C629.294 -2.40479 631.083 -2.60238 632.952 -2.31993C634.84 -2.06307 636.73 -1.22381 638.624 0.197853C640.416 1.54267 641.701 3.10805 642.481 4.89401C643.261 6.67996 643.513 8.52968 643.237 10.4432C642.987 12.3758 642.189 14.2379 640.844 16.0293C639.403 17.9486 637.707 19.3558 635.754 20.251C633.847 21.1397 631.795 21.4203 629.6 21.093C627.431 20.7848 625.22 19.7854 622.968 18.0947ZM626.253 13.7186C627.84 14.9097 629.449 15.3777 631.081 15.1224C632.758 14.8608 634.192 13.9366 635.383 12.35C636.536 10.8145 637.017 9.21472 636.826 7.55064C636.634 5.88655 635.733 4.44934 634.12 3.23901C633.122 2.48975 632.073 2.02207 630.972 1.83597C629.897 1.66908 628.831 1.8094 627.775 2.25692C626.738 2.67885 625.807 3.44002 624.981 4.54045C624.212 5.5641 623.735 6.62628 623.549 7.727C623.363 8.82771 623.481 9.89657 623.903 10.9336C624.369 11.9642 625.153 12.8925 626.253 13.7186ZM637.5 28.4042L652.601 8.28943L657.745 12.151L652.039 19.7516L653.766 21.0484L664.923 17.5398L670.527 21.7472L656.097 26.099L656.195 42.4383L650.322 38.0292L650.289 25.5204L648.638 24.2812L642.644 32.2657L637.5 28.4042ZM662.674 37.9992C663.654 36.694 664.867 35.8242 666.314 35.3896C667.805 34.9487 669.405 34.9495 671.114 35.3918C672.822 35.8342 674.521 36.6894 676.21 37.9573C677.055 38.5913 677.864 39.2989 678.638 40.0801C679.412 40.8612 680.013 41.6327 680.442 42.3945L681.249 41.3196C682.209 40.0401 682.565 38.7666 682.316 37.4993C682.093 36.2512 681.239 35.07 679.754 33.9558C678.654 33.1297 677.461 32.5339 676.174 32.1685C674.888 31.8031 673.416 31.5785 671.759 31.4945L672.644 26.8773C674.628 27.0062 676.474 27.3719 678.183 27.9742C679.917 28.5958 681.552 29.483 683.087 30.6357C685.953 32.7874 687.642 35.1753 688.153 37.7996C688.689 40.443 687.958 43.0955 685.96 45.757L681.148 52.1676C680.744 52.705 680.546 53.1561 680.552 53.5209C680.584 53.9049 680.798 54.2858 681.195 54.6636L678.054 58.8478C677.535 58.5788 677.065 58.3257 676.643 58.0887C676.246 57.871 675.92 57.666 675.664 57.4739C674.64 56.7054 674.032 55.8892 673.841 55.0251C673.675 54.1802 673.778 53.377 674.149 52.6156L674.812 51.4927C673.097 51.9655 671.356 52.0191 669.59 51.6535C667.823 51.2879 666.262 50.596 664.906 49.5778C663.575 48.5788 662.574 47.4071 661.903 46.0628C661.276 44.7122 661.011 43.3328 661.108 41.9249C661.249 40.5105 661.771 39.202 662.674 37.9992ZM674.41 48.4301C674.922 48.3344 675.383 48.2002 675.793 48.0276C676.203 47.8549 676.503 47.6407 676.696 47.3848L678.223 45.3503C677.801 44.6333 677.279 43.9418 676.659 43.276C676.058 42.5845 675.437 41.9986 674.797 41.5183C673.467 40.5193 672.145 39.9875 670.833 39.9229C669.566 39.8519 668.577 40.2899 667.866 41.2368C667.482 41.7486 667.258 42.3405 667.194 43.0124C667.129 43.6844 667.26 44.3629 667.586 45.0478C667.912 45.7328 668.446 46.3538 669.189 46.911C669.956 47.4873 670.817 47.9133 671.77 48.1889C672.743 48.439 673.623 48.5194 674.41 48.4301Z" fill="white"/>
<path d="M773.871 131.079C771.875 129.58 770.346 127.832 769.284 125.835C768.248 123.857 767.632 121.774 767.434 119.585C767.282 117.389 767.5 115.233 768.09 113.115C768.699 110.971 769.657 109.029 770.963 107.289C772.327 105.472 773.957 103.994 775.851 102.856C777.791 101.711 779.83 100.941 781.968 100.545C784.15 100.143 786.326 100.176 788.496 100.644C790.71 101.106 792.789 102.067 794.734 103.527C796.705 105.006 798.199 106.748 799.215 108.751C800.257 110.774 800.855 112.883 801.008 115.078C801.16 117.274 800.942 119.43 800.352 121.549C799.762 123.667 798.814 125.596 797.508 127.336C796.163 129.127 794.533 130.605 792.619 131.769C790.724 132.907 788.685 133.678 786.503 134.08C784.365 134.476 782.199 134.43 780.004 133.942C777.834 133.474 775.79 132.52 773.871 131.079ZM776.337 111.323C775.454 112.5 774.778 113.774 774.31 115.143C773.842 116.512 773.614 117.882 773.626 119.252C773.683 120.615 774.006 121.917 774.594 123.159C775.227 124.395 776.171 125.483 777.425 126.424C778.704 127.385 780.035 127.984 781.418 128.222C782.819 128.433 784.179 128.354 785.498 127.983C786.835 127.587 788.074 126.977 789.214 126.151C790.398 125.32 791.403 124.354 792.229 123.254C793.113 122.076 793.767 120.806 794.19 119.443C794.657 118.074 794.863 116.708 794.806 115.344C794.794 113.975 794.471 112.672 793.838 111.437C793.25 110.195 792.341 109.113 791.113 108.191C789.808 107.211 788.455 106.615 787.053 106.403C785.696 106.185 784.359 106.261 783.04 106.632C781.722 107.002 780.48 107.591 779.315 108.397C778.175 109.222 777.183 110.197 776.337 111.323ZM791.096 143.71L806.196 123.595L811.34 127.457L799.612 143.08L806.022 147.893L817.751 132.269L822.933 136.16L811.204 151.783L817.577 156.567L829.305 140.943L834.449 144.805L819.349 164.92L791.096 143.71ZM824.431 168.735L839.503 148.659L844.647 152.52L834.733 165.725L853.696 159.254L858.379 162.77L843.279 182.884L838.135 179.023L847.818 166.125L829.229 172.337L824.431 168.735ZM858.088 194.602C854.633 192.008 852.769 189.028 852.495 185.662C852.266 182.289 853.621 178.644 856.561 174.729C858.405 172.272 860.179 170.363 861.882 169C863.585 167.638 865.272 166.723 866.942 166.257C868.613 165.79 870.347 165.692 872.146 165.962C873.969 166.251 875.88 166.824 877.876 167.683L888.156 171.979L885.091 176.22L874.898 172.049C873.401 171.485 871.951 171.178 870.55 171.126C869.167 171.048 867.82 171.297 866.508 171.873C865.24 172.442 863.973 173.411 862.705 174.78C864.414 174.102 866.203 173.905 868.071 174.187C869.959 174.444 871.85 175.283 873.744 176.705C875.535 178.05 876.821 179.615 877.601 181.401C878.381 183.187 878.633 185.037 878.357 186.95C878.106 188.883 877.309 190.745 875.964 192.536C874.523 194.456 872.826 195.863 870.874 196.758C868.966 197.647 866.915 197.927 864.72 197.6C862.551 197.292 860.34 196.292 858.088 194.602ZM861.373 190.226C862.96 191.417 864.569 191.885 866.201 191.629C867.878 191.368 869.312 190.444 870.503 188.857C871.656 187.321 872.137 185.722 871.945 184.058C871.754 182.394 870.852 180.956 869.24 179.746C868.242 178.997 867.193 178.529 866.092 178.343C865.017 178.176 863.951 178.316 862.895 178.764C861.858 179.186 860.926 179.947 860.1 181.047C859.332 182.071 858.855 183.133 858.668 184.234C858.482 185.335 858.6 186.404 859.022 187.441C859.489 188.471 860.273 189.399 861.373 190.226ZM872.62 204.911L887.721 184.796L892.864 188.658L887.159 196.259L888.886 197.555L900.043 194.047L905.647 198.254L891.216 202.606L891.315 218.945L885.441 214.536L885.409 202.027L883.758 200.788L877.764 208.773L872.62 204.911ZM897.794 214.506C898.774 213.201 899.987 212.331 901.434 211.897C902.925 211.456 904.525 211.456 906.234 211.899C907.942 212.341 909.641 213.196 911.33 214.464C912.174 215.098 912.984 215.806 913.758 216.587C914.532 217.368 915.133 218.14 915.562 218.901L916.368 217.827C917.329 216.547 917.685 215.274 917.436 214.006C917.212 212.758 916.358 211.577 914.874 210.463C913.774 209.637 912.58 209.041 911.294 208.675C910.008 208.31 908.536 208.085 906.878 208.001L907.764 203.384C909.748 203.513 911.594 203.879 913.302 204.481C915.037 205.103 916.671 205.99 918.207 207.143C921.073 209.294 922.762 211.682 923.272 214.307C923.809 216.95 923.078 219.602 921.08 222.264L916.267 228.675C915.864 229.212 915.665 229.663 915.672 230.028C915.703 230.412 915.918 230.793 916.314 231.171L913.173 235.355C912.655 235.086 912.185 234.833 911.762 234.596C911.366 234.378 911.039 234.173 910.783 233.981C909.76 233.212 909.152 232.396 908.961 231.532C908.795 230.687 908.897 229.884 909.269 229.123L909.932 228C908.216 228.472 906.476 228.526 904.709 228.16C902.943 227.795 901.382 227.103 900.025 226.085C898.695 225.086 897.694 223.914 897.022 222.57C896.396 221.219 896.131 219.84 896.227 218.432C896.369 217.018 896.891 215.709 897.794 214.506ZM909.53 224.937C910.042 224.841 910.503 224.707 910.913 224.535C911.322 224.362 911.623 224.148 911.815 223.892L913.343 221.857C912.92 221.14 912.399 220.449 911.779 219.783C911.177 219.091 910.557 218.506 909.917 218.025C908.586 217.026 907.265 216.494 905.953 216.43C904.686 216.359 903.697 216.797 902.986 217.744C902.602 218.256 902.378 218.847 902.313 219.519C902.249 220.191 902.38 220.87 902.706 221.555C903.032 222.24 903.566 222.861 904.308 223.418C905.076 223.994 905.937 224.42 906.89 224.696C907.863 224.946 908.743 225.026 909.53 224.937Z" fill="white"/>
<path d="M1008.99 307.586C1006.99 306.087 1005.47 304.339 1004.4 302.342C1003.37 300.364 1002.75 298.281 1002.55 296.092C1002.4 293.896 1002.62 291.74 1003.21 289.622C1003.82 287.478 1004.78 285.536 1006.08 283.796C1007.45 281.979 1009.08 280.501 1010.97 279.363C1012.91 278.218 1014.95 277.448 1017.09 277.052C1019.27 276.65 1021.45 276.683 1023.62 277.151C1025.83 277.613 1027.91 278.574 1029.85 280.034C1031.82 281.513 1033.32 283.255 1034.33 285.258C1035.38 287.281 1035.97 289.39 1036.13 291.585C1036.28 293.781 1036.06 295.937 1035.47 298.056C1034.88 300.174 1033.93 302.103 1032.63 303.843C1031.28 305.634 1029.65 307.112 1027.74 308.276C1025.84 309.414 1023.81 310.185 1021.62 310.587C1019.48 310.983 1017.32 310.937 1015.12 310.449C1012.95 309.981 1010.91 309.027 1008.99 307.586ZM1011.46 287.83C1010.57 289.007 1009.9 290.281 1009.43 291.65C1008.96 293.019 1008.73 294.389 1008.75 295.759C1008.8 297.122 1009.13 298.424 1009.71 299.666C1010.35 300.902 1011.29 301.99 1012.54 302.932C1013.82 303.892 1015.16 304.491 1016.54 304.729C1017.94 304.94 1019.3 304.861 1020.62 304.49C1021.96 304.094 1023.19 303.484 1024.33 302.658C1025.52 301.827 1026.52 300.861 1027.35 299.761C1028.23 298.583 1028.89 297.313 1029.31 295.95C1029.78 294.581 1029.98 293.215 1029.93 291.851C1029.91 290.482 1029.59 289.179 1028.96 287.944C1028.37 286.702 1027.46 285.62 1026.23 284.698C1024.93 283.718 1023.57 283.122 1022.17 282.91C1020.82 282.692 1019.48 282.768 1018.16 283.139C1016.84 283.509 1015.6 284.098 1014.43 284.904C1013.29 285.729 1012.3 286.704 1011.46 287.83ZM1026.22 320.217L1041.32 300.102L1046.46 303.964L1034.73 319.587L1041.14 324.4L1052.87 308.776L1058.05 312.667L1046.32 328.29L1052.7 333.074L1064.43 317.45L1069.57 321.312L1054.47 341.427L1026.22 320.217ZM1059.55 345.242L1074.62 325.166L1079.77 329.027L1069.85 342.232L1088.82 335.761L1093.5 339.277L1078.4 359.391L1073.25 355.53L1082.94 342.632L1064.35 348.844L1059.55 345.242ZM1093.21 371.109C1089.75 368.515 1087.89 365.535 1087.61 362.169C1087.39 358.796 1088.74 355.151 1091.68 351.236C1093.52 348.779 1095.3 346.87 1097 345.507C1098.7 344.145 1100.39 343.23 1102.06 342.764C1103.73 342.297 1105.47 342.199 1107.27 342.469C1109.09 342.758 1111 343.331 1113 344.19L1123.28 348.486L1120.21 352.727L1110.02 348.556C1108.52 347.992 1107.07 347.685 1105.67 347.633C1104.29 347.555 1102.94 347.804 1101.63 348.38C1100.36 348.949 1099.09 349.918 1097.82 351.287C1099.53 350.609 1101.32 350.412 1103.19 350.694C1105.08 350.951 1106.97 351.79 1108.86 353.212C1110.66 354.557 1111.94 356.122 1112.72 357.908C1113.5 359.694 1113.75 361.544 1113.48 363.457C1113.23 365.39 1112.43 367.252 1111.08 369.043C1109.64 370.963 1107.95 372.37 1105.99 373.265C1104.09 374.154 1102.03 374.434 1099.84 374.107C1097.67 373.799 1095.46 372.799 1093.21 371.109ZM1096.49 366.733C1098.08 367.924 1099.69 368.392 1101.32 368.136C1103 367.875 1104.43 366.951 1105.62 365.364C1106.78 363.828 1107.26 362.229 1107.07 360.565C1106.87 358.901 1105.97 357.463 1104.36 356.253C1103.36 355.504 1102.31 355.036 1101.21 354.85C1100.14 354.683 1099.07 354.823 1098.01 355.271C1096.98 355.693 1096.05 356.454 1095.22 357.554C1094.45 358.578 1093.97 359.64 1093.79 360.741C1093.6 361.842 1093.72 362.911 1094.14 363.948C1094.61 364.978 1095.39 365.907 1096.49 366.733ZM1107.74 381.418L1122.84 361.303L1127.98 365.165L1122.28 372.766L1124.01 374.062L1135.16 370.554L1140.77 374.761L1126.34 379.113L1126.43 395.452L1120.56 391.043L1120.53 378.534L1118.88 377.295L1112.88 385.28L1107.74 381.418ZM1132.91 391.013C1133.89 389.708 1135.11 388.838 1136.55 388.404C1138.04 387.963 1139.64 387.963 1141.35 388.406C1143.06 388.848 1144.76 389.703 1146.45 390.971C1147.29 391.605 1148.1 392.313 1148.88 393.094C1149.65 393.875 1150.25 394.647 1150.68 395.408L1151.49 394.334C1152.45 393.054 1152.8 391.781 1152.56 390.513C1152.33 389.265 1151.48 388.084 1149.99 386.97C1148.89 386.144 1147.7 385.548 1146.41 385.183C1145.13 384.817 1143.66 384.592 1142 384.509L1142.88 379.891C1144.87 380.02 1146.71 380.386 1148.42 380.988C1150.16 381.61 1151.79 382.497 1153.33 383.65C1156.19 385.801 1157.88 388.189 1158.39 390.814C1158.93 393.457 1158.2 396.109 1156.2 398.771L1151.39 405.182C1150.98 405.719 1150.79 406.17 1150.79 406.535C1150.82 406.919 1151.04 407.3 1151.43 407.678L1148.29 411.862C1147.77 411.593 1147.3 411.34 1146.88 411.103C1146.49 410.885 1146.16 410.68 1145.9 410.488C1144.88 409.719 1144.27 408.903 1144.08 408.039C1143.91 407.194 1144.02 406.391 1144.39 405.63L1145.05 404.507C1143.34 404.98 1141.6 405.033 1139.83 404.668C1138.06 404.302 1136.5 403.61 1135.15 402.592C1133.81 401.593 1132.81 400.421 1132.14 399.077C1131.52 397.726 1131.25 396.347 1131.35 394.939C1131.49 393.525 1132.01 392.216 1132.91 391.013ZM1144.65 401.444C1145.16 401.348 1145.62 401.214 1146.03 401.042C1146.44 400.869 1146.74 400.655 1146.93 400.399L1148.46 398.364C1148.04 397.647 1147.52 396.956 1146.9 396.29C1146.3 395.598 1145.68 395.013 1145.04 394.532C1143.71 393.533 1142.38 393.001 1141.07 392.937C1139.81 392.866 1138.82 393.304 1138.11 394.251C1137.72 394.763 1137.5 395.354 1137.43 396.026C1137.37 396.698 1137.5 397.377 1137.83 398.062C1138.15 398.747 1138.69 399.368 1139.43 399.925C1140.2 400.501 1141.06 400.927 1142.01 401.203C1142.98 401.453 1143.86 401.533 1144.65 401.444Z" fill="white"/>
<path d="M1244.11 484.093C1242.11 482.594 1240.59 480.846 1239.52 478.849C1238.49 476.871 1237.87 474.788 1237.67 472.599C1237.52 470.403 1237.74 468.247 1238.33 466.129C1238.94 463.985 1239.9 462.043 1241.2 460.303C1242.57 458.486 1244.2 457.008 1246.09 455.87C1248.03 454.725 1250.07 453.955 1252.21 453.559C1254.39 453.157 1256.57 453.19 1258.74 453.658C1260.95 454.12 1263.03 455.081 1264.97 456.541C1266.94 458.02 1268.44 459.762 1269.45 461.765C1270.5 463.788 1271.09 465.897 1271.25 468.092C1271.4 470.288 1271.18 472.444 1270.59 474.562C1270 476.681 1269.05 478.61 1267.75 480.35C1266.4 482.141 1264.77 483.619 1262.86 484.783C1260.96 485.921 1258.92 486.692 1256.74 487.094C1254.6 487.49 1252.44 487.444 1250.24 486.956C1248.07 486.488 1246.03 485.534 1244.11 484.093ZM1246.58 464.337C1245.69 465.514 1245.02 466.788 1244.55 468.157C1244.08 469.526 1243.85 470.896 1243.87 472.266C1243.92 473.629 1244.25 474.931 1244.83 476.173C1245.47 477.409 1246.41 478.497 1247.66 479.438C1248.94 480.399 1250.27 480.998 1251.66 481.235C1253.06 481.447 1254.42 481.368 1255.74 480.997C1257.07 480.601 1258.31 479.991 1259.45 479.165C1260.64 478.334 1261.64 477.368 1262.47 476.268C1263.35 475.09 1264.01 473.82 1264.43 472.457C1264.9 471.088 1265.1 469.722 1265.05 468.358C1265.03 466.989 1264.71 465.686 1264.08 464.451C1263.49 463.209 1262.58 462.127 1261.35 461.205C1260.05 460.225 1258.69 459.629 1257.29 459.417C1255.94 459.199 1254.6 459.275 1253.28 459.646C1251.96 460.016 1250.72 460.605 1249.55 461.411C1248.41 462.236 1247.42 463.211 1246.58 464.337ZM1261.34 496.724L1276.44 476.609L1281.58 480.471L1269.85 496.094L1276.26 500.907L1287.99 485.283L1293.17 489.174L1281.44 504.797L1287.82 509.581L1299.54 493.957L1304.69 497.819L1289.59 517.934L1261.34 496.724ZM1294.67 521.749L1309.74 501.673L1314.89 505.534L1304.97 518.739L1323.94 512.268L1328.62 515.784L1313.52 535.898L1308.37 532.037L1318.06 519.139L1299.47 525.351L1294.67 521.749ZM1328.33 547.616C1324.87 545.022 1323.01 542.042 1322.73 538.676C1322.51 535.303 1323.86 531.658 1326.8 527.743C1328.64 525.286 1330.42 523.377 1332.12 522.014C1333.82 520.652 1335.51 519.737 1337.18 519.271C1338.85 518.804 1340.59 518.706 1342.39 518.976C1344.21 519.264 1346.12 519.838 1348.12 520.697L1358.4 524.993L1355.33 529.234L1345.14 525.063C1343.64 524.499 1342.19 524.192 1340.79 524.14C1339.41 524.062 1338.06 524.311 1336.75 524.887C1335.48 525.456 1334.21 526.425 1332.94 527.794C1334.65 527.116 1336.44 526.919 1338.31 527.201C1340.2 527.458 1342.09 528.297 1343.98 529.719C1345.77 531.064 1347.06 532.629 1347.84 534.415C1348.62 536.201 1348.87 538.051 1348.6 539.964C1348.35 541.897 1347.55 543.759 1346.2 545.55C1344.76 547.47 1343.07 548.877 1341.11 549.772C1339.21 550.661 1337.15 550.941 1334.96 550.614C1332.79 550.306 1330.58 549.306 1328.33 547.616ZM1331.61 543.24C1333.2 544.431 1334.81 544.899 1336.44 544.643C1338.12 544.382 1339.55 543.458 1340.74 541.871C1341.9 540.335 1342.38 538.736 1342.18 537.072C1341.99 535.407 1341.09 533.97 1339.48 532.76C1338.48 532.011 1337.43 531.543 1336.33 531.357C1335.26 531.19 1334.19 531.33 1333.13 531.778C1332.1 532.2 1331.17 532.961 1330.34 534.061C1329.57 535.085 1329.09 536.147 1328.91 537.248C1328.72 538.349 1328.84 539.418 1329.26 540.454C1329.73 541.485 1330.51 542.413 1331.61 543.24ZM1342.86 557.925L1357.96 537.81L1363.1 541.672L1357.4 549.273L1359.13 550.569L1370.28 547.061L1375.89 551.268L1361.46 555.62L1361.55 571.959L1355.68 567.55L1355.65 555.041L1354 553.802L1348 561.787L1342.86 557.925ZM1368.03 567.52C1369.01 566.215 1370.23 565.345 1371.67 564.911C1373.16 564.47 1374.76 564.47 1376.47 564.913C1378.18 565.355 1379.88 566.21 1381.57 567.478C1382.41 568.112 1383.22 568.82 1384 569.601C1384.77 570.382 1385.37 571.154 1385.8 571.915L1386.61 570.841C1387.57 569.561 1387.92 568.288 1387.68 567.02C1387.45 565.772 1386.6 564.591 1385.11 563.477C1384.01 562.651 1382.82 562.055 1381.53 561.689C1380.25 561.324 1378.78 561.099 1377.12 561.015L1378 556.398C1379.99 556.527 1381.83 556.893 1383.54 557.495C1385.28 558.117 1386.91 559.004 1388.45 560.157C1391.31 562.308 1393 564.696 1393.51 567.321C1394.05 569.964 1393.32 572.616 1391.32 575.278L1386.51 581.689C1386.1 582.226 1385.9 582.677 1385.91 583.042C1385.94 583.426 1386.16 583.807 1386.55 584.185L1383.41 588.369C1382.89 588.1 1382.42 587.847 1382 587.61C1381.61 587.392 1381.28 587.187 1381.02 586.995C1380 586.226 1379.39 585.41 1379.2 584.546C1379.03 583.701 1379.14 582.898 1379.51 582.137L1380.17 581.014C1378.46 581.486 1376.71 581.54 1374.95 581.174C1373.18 580.809 1371.62 580.117 1370.26 579.099C1368.93 578.1 1367.93 576.928 1367.26 575.584C1366.64 574.233 1366.37 572.854 1366.47 571.446C1366.61 570.031 1367.13 568.723 1368.03 567.52ZM1379.77 577.951C1380.28 577.855 1380.74 577.721 1381.15 577.548C1381.56 577.376 1381.86 577.162 1382.05 576.906L1383.58 574.871C1383.16 574.154 1382.64 573.463 1382.02 572.797C1381.42 572.105 1380.8 571.52 1380.16 571.039C1378.83 570.04 1377.5 569.508 1376.19 569.444C1374.93 569.373 1373.94 569.811 1373.23 570.758C1372.84 571.27 1372.62 571.861 1372.55 572.533C1372.49 573.205 1372.62 573.884 1372.95 574.569C1373.27 575.254 1373.81 575.875 1374.55 576.432C1375.32 577.008 1376.18 577.434 1377.13 577.71C1378.1 577.96 1378.98 578.04 1379.77 577.951Z" fill="white"/>
<path d="M1479.23 660.6C1477.23 659.101 1475.7 657.353 1474.64 655.356C1473.61 653.378 1472.99 651.295 1472.79 649.106C1472.64 646.91 1472.86 644.754 1473.45 642.636C1474.06 640.492 1475.02 638.55 1476.32 636.81C1477.69 634.993 1479.32 633.515 1481.21 632.377C1483.15 631.232 1485.19 630.462 1487.33 630.066C1489.51 629.664 1491.69 629.697 1493.85 630.165C1496.07 630.627 1498.15 631.588 1500.09 633.048C1502.06 634.527 1503.56 636.268 1504.57 638.272C1505.62 640.295 1506.21 642.404 1506.37 644.599C1506.52 646.795 1506.3 648.951 1505.71 651.069C1505.12 653.188 1504.17 655.117 1502.87 656.857C1501.52 658.648 1499.89 660.126 1497.98 661.29C1496.08 662.428 1494.04 663.199 1491.86 663.601C1489.72 663.997 1487.56 663.951 1485.36 663.463C1483.19 662.995 1481.15 662.041 1479.23 660.6ZM1481.7 640.844C1480.81 642.021 1480.14 643.295 1479.67 644.664C1479.2 646.033 1478.97 647.403 1478.99 648.772C1479.04 650.136 1479.37 651.438 1479.95 652.68C1480.59 653.916 1481.53 655.004 1482.78 655.945C1484.06 656.906 1485.39 657.505 1486.78 657.742C1488.18 657.954 1489.54 657.875 1490.86 657.504C1492.19 657.108 1493.43 656.497 1494.57 655.672C1495.76 654.841 1496.76 653.875 1497.59 652.775C1498.47 651.597 1499.13 650.327 1499.55 648.964C1500.02 647.595 1500.22 646.229 1500.16 644.865C1500.15 643.496 1499.83 642.193 1499.2 640.958C1498.61 639.716 1497.7 638.634 1496.47 637.712C1495.17 636.732 1493.81 636.136 1492.41 635.924C1491.06 635.706 1489.72 635.782 1488.4 636.153C1487.08 636.523 1485.84 637.112 1484.67 637.917C1483.53 638.743 1482.54 639.718 1481.7 640.844ZM1496.46 673.231L1511.56 653.116L1516.7 656.978L1504.97 672.601L1511.38 677.414L1523.11 661.79L1528.29 665.681L1516.56 681.304L1522.94 686.088L1534.66 670.464L1539.81 674.326L1524.71 694.441L1496.46 673.231ZM1529.79 698.256L1544.86 678.18L1550.01 682.041L1540.09 695.246L1559.06 688.775L1563.74 692.291L1548.64 712.405L1543.49 708.544L1553.18 695.646L1534.59 701.858L1529.79 698.256ZM1563.45 724.123C1559.99 721.529 1558.13 718.549 1557.85 715.182C1557.63 711.81 1558.98 708.165 1561.92 704.25C1563.76 701.793 1565.54 699.884 1567.24 698.521C1568.94 697.159 1570.63 696.244 1572.3 695.778C1573.97 695.311 1575.71 695.213 1577.5 695.483C1579.33 695.771 1581.24 696.345 1583.24 697.204L1593.51 701.5L1590.45 705.741L1580.26 701.57C1578.76 701.006 1577.31 700.699 1575.91 700.647C1574.53 700.569 1573.18 700.818 1571.87 701.394C1570.6 701.963 1569.33 702.932 1568.06 704.301C1569.77 703.623 1571.56 703.426 1573.43 703.708C1575.32 703.965 1577.21 704.804 1579.1 706.226C1580.89 707.571 1582.18 709.136 1582.96 710.922C1583.74 712.708 1583.99 714.558 1583.72 716.471C1583.47 718.404 1582.67 720.266 1581.32 722.057C1579.88 723.977 1578.19 725.384 1576.23 726.279C1574.33 727.168 1572.27 727.448 1570.08 727.121C1567.91 726.813 1565.7 725.813 1563.45 724.123ZM1566.73 719.747C1568.32 720.938 1569.93 721.406 1571.56 721.15C1573.24 720.889 1574.67 719.965 1575.86 718.378C1577.02 716.842 1577.5 715.243 1577.3 713.579C1577.11 711.914 1576.21 710.477 1574.6 709.267C1573.6 708.518 1572.55 708.05 1571.45 707.864C1570.38 707.697 1569.31 707.837 1568.25 708.285C1567.22 708.707 1566.29 709.468 1565.46 710.568C1564.69 711.592 1564.21 712.654 1564.03 713.755C1563.84 714.856 1563.96 715.924 1564.38 716.961C1564.85 717.992 1565.63 718.92 1566.73 719.747ZM1577.98 734.432L1593.08 714.317L1598.22 718.179L1592.52 725.779L1594.25 727.076L1605.4 723.568L1611.01 727.775L1596.58 732.127L1596.67 748.466L1590.8 744.057L1590.77 731.548L1589.12 730.309L1583.12 738.294L1577.98 734.432ZM1603.15 744.027C1604.13 742.722 1605.35 741.852 1606.79 741.418C1608.28 740.977 1609.88 740.977 1611.59 741.42C1613.3 741.862 1615 742.717 1616.69 743.985C1617.53 744.619 1618.34 745.327 1619.12 746.108C1619.89 746.889 1620.49 747.661 1620.92 748.422L1621.73 747.348C1622.69 746.068 1623.04 744.795 1622.79 743.527C1622.57 742.279 1621.72 741.098 1620.23 739.984C1619.13 739.158 1617.94 738.562 1616.65 738.196C1615.37 737.831 1613.9 737.606 1612.24 737.522L1613.12 732.905C1615.11 733.034 1616.95 733.4 1618.66 734.002C1620.4 734.624 1622.03 735.511 1623.57 736.664C1626.43 738.815 1628.12 741.203 1628.63 743.827C1629.17 746.471 1628.44 749.123 1626.44 751.785L1621.63 758.195C1621.22 758.733 1621.02 759.184 1621.03 759.549C1621.06 759.933 1621.28 760.314 1621.67 760.692L1618.53 764.876C1618.01 764.607 1617.54 764.354 1617.12 764.117C1616.72 763.899 1616.4 763.694 1616.14 763.502C1615.12 762.733 1614.51 761.917 1614.32 761.053C1614.15 760.208 1614.26 759.405 1614.63 758.644L1615.29 757.521C1613.58 757.993 1611.83 758.047 1610.07 757.681C1608.3 757.316 1606.74 756.624 1605.38 755.606C1604.05 754.607 1603.05 753.435 1602.38 752.091C1601.75 750.74 1601.49 749.361 1601.59 747.953C1601.73 746.538 1602.25 745.23 1603.15 744.027ZM1614.89 754.458C1615.4 754.362 1615.86 754.228 1616.27 754.055C1616.68 753.883 1616.98 753.669 1617.17 753.413L1618.7 751.378C1618.28 750.661 1617.76 749.97 1617.14 749.304C1616.54 748.612 1615.92 748.026 1615.28 747.546C1613.95 746.547 1612.62 746.015 1611.31 745.951C1610.05 745.88 1609.06 746.318 1608.35 747.265C1607.96 747.776 1607.74 748.368 1607.67 749.04C1607.61 749.712 1607.74 750.391 1608.07 751.076C1608.39 751.761 1608.93 752.382 1609.67 752.939C1610.44 753.515 1611.3 753.941 1612.25 754.217C1613.22 754.467 1614.1 754.547 1614.89 754.458Z" fill="white"/>
</svg>
