<svg width="875" height="584" viewBox="0 0 875 584" fill="none" xmlns="http://www.w3.org/2000/svg">
<path d="M798.481 304.146L781.786 285.059C781.786 285.059 706.825 218.688 704.156 143.796C701.486 68.9032 668.293 58.8361 588.862 54.1326C521.707 50.1558 444.079 38.8803 381.684 81.3824C354.302 100.034 321.893 109.515 289.035 108.381L216.611 105.881C182.057 104.688 148.052 115.203 119.955 135.855C78.3008 166.471 33.4453 222.83 51.745 318.684C54.8523 334.96 56.8172 352.022 57.1255 368.602L57.8831 409.329C58.5485 445.097 86.4367 473.971 121.277 474.734L664.868 486.65C720.752 487.875 774.473 464.812 812.865 423.146C823.103 412.036 828.658 397.24 828.373 381.942C827.838 353.177 817.213 325.563 798.481 304.146Z" fill="url(#paint0_linear_8007_33431)"/>
<path d="M812.359 113.565C821.303 154.445 862.197 394.984 610.876 487.206C610.876 487.206 537.321 338.183 805.734 111.991C808.083 110.011 811.775 110.894 812.359 113.565Z" fill="#91B3FA"/>
<path d="M791.416 153.239C788.618 167.601 785.208 181.802 781.55 195.948C777.854 210.082 773.829 224.129 769.478 238.076C760.806 265.98 750.716 293.447 739.194 320.314C733.363 333.718 727.15 346.956 720.535 359.998C713.82 372.988 706.668 385.754 699.032 398.236C691.264 410.635 683.017 422.74 674.139 434.39C665.138 445.944 655.529 457.029 645.212 467.454C644.638 468.035 643.702 468.039 643.123 467.464C642.543 466.889 642.539 465.953 643.113 465.373L643.118 465.368L643.134 465.351C653.397 455.079 662.979 444.135 671.971 432.709C680.841 421.186 689.098 409.194 696.885 396.897C704.542 384.516 711.724 371.842 718.477 358.934C725.129 345.974 731.386 332.81 737.265 319.474C748.884 292.74 759.086 265.381 767.878 237.571C772.289 223.672 776.374 209.667 780.133 195.574C783.853 181.477 787.33 167.292 790.185 153.009L790.188 152.997C790.256 152.657 790.586 152.437 790.924 152.505C791.263 152.573 791.484 152.9 791.416 153.239Z" fill="#BDD0FB"/>
<path d="M704.235 35.2864C725.967 78.2327 840.545 332.931 581.834 476.047C581.834 476.047 456.192 326.463 696.279 34.7013C698.38 32.1494 702.816 32.4807 704.235 35.2864Z" fill="#BDD0FB"/>
<path d="M691.592 81.9459C692.178 90.0557 692.49 98.1577 692.714 106.271C692.928 114.382 693.007 122.496 692.973 130.609C692.911 146.836 692.368 163.062 691.383 179.26C689.376 211.652 685.576 243.963 679.326 275.839C673.063 307.689 664.389 339.166 652.021 369.259C645.843 384.296 638.694 398.956 630.419 412.975C626.252 419.965 621.867 426.833 617.114 433.448C612.353 440.057 607.306 446.46 601.959 452.613C601.467 453.179 600.609 453.239 600.044 452.746C599.478 452.254 599.419 451.395 599.91 450.829L599.914 450.825L599.922 450.816C605.231 444.755 610.249 438.441 614.989 431.918C619.721 425.387 624.093 418.6 628.253 411.686C636.514 397.818 643.673 383.291 649.874 368.367C662.29 338.504 671.06 307.189 677.43 275.462C683.788 243.711 687.711 211.486 689.844 179.162C690.893 162.998 691.5 146.802 691.627 130.601C691.693 122.501 691.647 114.399 691.466 106.301C691.276 98.2066 690.996 90.1007 690.445 82.0354L690.445 82.0262C690.423 81.7088 690.662 81.4341 690.979 81.4129C691.296 81.3913 691.57 81.6288 691.592 81.9459Z" fill="#BDD0FB"/>
<path d="M821.471 310.908C816.877 337.004 783.948 487.777 637.076 482.255C637.076 482.255 633.232 377.409 818.49 308.413C820.111 307.809 821.771 309.203 821.471 310.908Z" fill="#BDD0FB"/>
<path d="M802.497 329.351C798.261 337.055 793.49 344.371 788.531 351.578C783.549 358.765 778.29 365.757 772.814 372.572C767.333 379.386 761.623 386.014 755.705 392.454C749.765 398.875 743.609 405.094 737.267 411.121C730.937 417.161 724.319 422.894 717.587 428.485C714.181 431.232 710.789 433.999 707.28 436.618C703.831 439.315 700.246 441.828 696.7 444.397C682.379 454.476 667.279 463.459 651.581 471.262C650.703 471.698 649.638 471.339 649.202 470.46C648.766 469.58 649.124 468.514 650.002 468.077L650.018 468.069L650.03 468.064C665.629 460.499 680.669 451.752 694.963 441.901C698.502 439.388 702.082 436.932 705.528 434.29C709.034 431.727 712.425 429.015 715.832 426.322C722.567 420.839 729.193 415.211 735.54 409.273C741.898 403.348 748.076 397.228 754.043 390.904C759.988 384.56 765.732 378.023 771.249 371.299C776.764 364.573 782.064 357.668 787.089 350.567C792.086 343.458 796.926 336.185 801.171 328.641L801.184 328.618C801.388 328.256 801.846 328.128 802.208 328.332C802.567 328.534 802.696 328.989 802.497 329.351Z" fill="url(#paint1_linear_8007_33431)"/>
<path d="M127.086 42.3867C113.642 86.5201 45.8832 346.55 278.191 454.036C278.191 454.036 366.817 294.345 133.679 40.8697C131.639 38.6527 127.964 39.5035 127.086 42.3867Z" fill="#BDD0FB"/>
<path d="M143.918 85.9486C144.819 101.41 146.367 116.858 148.218 132.249C150.082 147.642 152.317 162.991 154.933 178.273C160.174 208.83 166.86 239.154 175.508 268.914C184.184 298.648 194.786 327.878 208.445 355.649C211.835 362.601 215.49 369.418 219.313 376.133C223.128 382.854 227.199 389.426 231.513 395.829C240.09 408.669 249.773 420.759 260.55 431.767L260.559 431.776C261.12 432.349 261.111 433.27 260.538 433.832C259.965 434.393 259.046 434.385 258.485 433.811L258.481 433.806C247.605 422.598 237.871 410.325 229.274 397.33C224.95 390.849 220.875 384.204 217.062 377.416C213.241 370.634 209.593 363.753 206.213 356.745C192.598 328.743 182.091 299.351 173.522 269.488C164.983 239.6 158.42 209.182 153.307 178.547C150.756 163.226 148.586 147.844 146.789 132.418C145.004 116.99 143.524 101.533 142.689 86.0048C142.671 85.6654 142.931 85.3752 143.27 85.3571C143.609 85.3387 143.899 85.5992 143.917 85.9386L143.918 85.9486Z" fill="url(#paint2_linear_8007_33431)"/>
<path d="M78.7416 254.13C77.4363 280.352 76.065 433.259 219.156 460.321C219.156 460.321 245.942 359.889 82.1698 252.378C80.7373 251.437 78.8268 252.417 78.7416 254.13Z" fill="#91B3FA"/>
<path d="M94.305 275.753C96.9897 283.939 100.006 292.042 103.141 300.081C106.292 308.117 109.624 316.082 113.117 323.974C116.604 331.869 120.288 339.676 124.141 347.394C128.007 355.106 132.003 362.754 136.278 370.242C144.779 385.241 154.115 399.777 164.627 413.405C165.902 415.139 167.304 416.771 168.64 418.455L170.667 420.964C171.341 421.8 172.064 422.596 172.761 423.414C174.174 425.032 175.554 426.681 176.994 428.273L181.382 432.989C187.34 439.168 193.637 445.01 200.343 450.333L200.358 450.345C200.974 450.833 201.077 451.729 200.589 452.345C200.101 452.961 199.206 453.065 198.591 452.577L198.582 452.57C191.793 447.096 185.451 441.114 179.468 434.809L175.066 430.002C173.622 428.38 172.242 426.704 170.826 425.057C170.129 424.225 169.405 423.415 168.731 422.565L166.704 420.017C165.369 418.307 163.967 416.648 162.696 414.89C152.203 401.062 142.933 386.368 134.513 371.235C130.278 363.679 126.329 355.97 122.51 348.202C118.705 340.427 115.072 332.568 111.638 324.624C108.199 316.683 104.922 308.672 101.827 300.591C98.7461 292.503 95.7927 284.376 93.1553 276.114C93.0538 275.797 93.2288 275.458 93.5456 275.356C93.8609 275.255 94.1982 275.428 94.3015 275.742L94.305 275.753Z" fill="#BDD0FB"/>
<path d="M673.404 456.4C673.404 461.112 669.55 464.967 664.839 464.967H201.694C196.983 464.967 193.129 461.112 193.129 456.4L189.275 189.939C189.275 185.228 194.819 176.03 204.981 176.721L657.618 164.996C663.528 164.843 669.243 167.12 673.428 171.297C677.614 175.473 679.904 181.184 679.765 187.096L673.404 456.4Z" fill="url(#paint3_linear_8007_33431)"/>
<path d="M664.949 448.182C664.949 452.644 661.302 456.294 656.846 456.294H212.863C208.406 456.294 204.76 452.644 204.76 448.182L201.124 206.286C201.552 191.729 214.299 186.498 222.027 186.807L655.851 175.155C660.004 175.043 664.02 176.644 666.959 179.582C669.899 182.52 671.505 186.537 671.401 190.695L664.949 448.182Z" fill="url(#paint4_linear_8007_33431)"/>
<g opacity="0.65">
<path d="M209.558 332.841C209.141 332.841 208.8 332.506 208.794 332.087L208.506 312.469C208.5 312.046 208.837 311.699 209.259 311.693C209.668 311.67 210.029 312.024 210.035 312.447L210.323 332.064C210.329 332.487 209.991 332.834 209.569 332.841C209.566 332.841 209.562 332.841 209.558 332.841Z" fill="white"/>
<path d="M208.853 284.768C208.436 284.768 208.095 284.433 208.089 284.014L206.987 208.88C207.01 203.828 208.565 199.793 211.61 196.872C217.143 191.565 225.794 191.831 226.159 191.845L364.688 188.123C365.106 188.086 365.461 188.445 365.472 188.868C365.484 189.291 365.151 189.643 364.729 189.654L226.156 193.376C225.762 193.36 217.738 193.114 212.668 197.978C209.934 200.601 208.537 204.267 208.516 208.872L209.618 283.992C209.625 284.414 209.287 284.762 208.865 284.768C208.861 284.768 208.857 284.768 208.853 284.768Z" fill="white"/>
</g>
<path d="M236.222 401.035C236.616 384.085 236.469 233.986 235.498 221.023C234.526 208.06 254.693 205.629 285.654 204.17C316.615 202.711 577.848 196.935 584.574 196.389C599.693 195.162 602.823 217.786 601.31 266.901C600.174 303.8 598.29 364.586 597.424 392.54C597.166 400.864 590.37 407.468 582.052 407.491C519.189 407.664 278.253 408.355 262.214 408.833C243.756 409.383 236.066 407.756 236.222 401.035Z" fill="url(#paint5_linear_8007_33431)"/>
<path d="M699.283 487.086H176.639C170.207 487.086 164.946 481.819 164.946 475.38C164.946 468.941 170.207 463.674 176.639 463.674H699.284C705.715 463.674 710.977 468.941 710.977 475.38C710.976 481.819 705.715 487.086 699.283 487.086Z" fill="url(#paint6_linear_8007_33431)"/>
<path d="M716.534 456.622H711.575V510.314H716.534V456.622Z" fill="#7D97F4"/>
<path d="M735.772 511.349H692.337V509.194C692.337 508.599 692.818 508.118 693.412 508.118H734.697C735.29 508.118 735.772 508.599 735.772 509.194L735.772 511.349Z" fill="#7D97F4"/>
<path d="M742.218 454.759C742.218 457.695 739.818 460.098 736.885 460.098H692.94C690.007 460.098 687.607 457.695 687.607 454.759V449.931C687.607 446.995 690.007 444.592 692.94 444.592H736.885C739.818 444.592 742.218 446.995 742.218 449.931V454.759Z" fill="#7D97F4"/>
<path d="M677.444 420.822C677.444 420.822 670.075 421.966 661.789 427.511C660.486 428.384 659.77 429.905 659.967 431.463C660.959 439.33 665.038 464.795 678.489 489.666C679.198 490.977 679.402 492.504 679.089 493.962L676.752 504.85L672.419 508.918H683.581L691.014 488.782L687.836 487.776C685.371 486.996 683.681 484.726 683.636 482.14L683.263 460.539C683.581 450.915 677.369 444.275 677.369 444.275L695.196 443.407L677.444 420.822Z" fill="url(#paint7_linear_8007_33431)"/>
<path d="M668.059 510.882C667.043 512.214 679.001 513.971 685.043 511.058C685.043 511.058 693.417 496.47 693.417 488.96C693.417 488.96 692.753 487.428 687.835 487.775C687.835 487.775 685.023 505.048 682.054 506.983C679.084 508.917 673.747 507.179 673.747 507.179C673.747 507.179 669.559 508.917 668.059 510.882Z" fill="url(#paint8_linear_8007_33431)"/>
<path d="M692.94 444.592C692.845 444.428 673.747 442.293 673.747 442.293C673.747 442.293 674.372 448.106 672.418 456.109C670.465 464.112 642.423 498.786 642.423 498.786L645.134 508.124C636.044 511.295 628.065 511.014 619.265 508.952L636.753 498.786C636.753 498.786 653.806 440.605 664.252 430.226L683.396 423.595L692.94 444.592Z" fill="url(#paint9_linear_8007_33431)"/>
<path d="M735.772 410.739C735.772 410.739 746.776 427.124 747.679 434.598C748.581 442.072 744.504 447.592 733.118 445.61C695.529 445.338 686.606 459.66 684.078 477.744C684.039 478.022 683.807 478.234 683.528 478.243C670.467 478.664 657.276 475.926 645.271 469.997C644.715 469.722 644.492 469.04 644.775 468.487C663.105 432.559 649.157 425.458 688.6 414.81C693.908 414.171 735.772 410.739 735.772 410.739Z" fill="url(#paint10_linear_8007_33431)"/>
<path d="M644.253 504.975C644.253 504.975 647.418 508.044 645.28 511.459C645.28 511.459 620.204 515.909 613.396 513.89C613.396 513.89 615.112 510.603 622.778 506.926L621.911 507.418C621.195 507.968 621.615 509.114 622.515 509.062C627.567 508.774 638.022 507.848 644.253 504.975Z" fill="url(#paint11_linear_8007_33431)"/>
<path d="M706.014 408.569C706.014 408.569 693.2 396.354 686.892 388.263C683.483 383.89 682.412 378.132 683.989 372.814C686.869 363.101 691.986 353.041 692.453 351.475C693.169 349.075 707.536 349.175 707.536 349.175C707.536 349.175 740.318 364.118 746.917 398.663L734.442 402.551C734.442 402.551 727.06 390.152 719.766 382.269C719.766 382.269 732.387 398.961 732.831 405.794L706.014 408.569Z" fill="url(#paint12_linear_8007_33431)"/>
<path d="M690.715 338.062C690.865 338.561 694.616 351.007 694.909 351.266C695.202 351.524 703.133 351.951 706.866 349.397L700.533 336.124L690.715 338.062Z" fill="url(#paint13_linear_8007_33431)"/>
<path d="M696.875 311.921C696.875 311.921 690.106 314.783 685.502 324.577C680.899 334.371 684.337 338.893 688.655 339.514C692.972 340.134 699.43 340.04 706.26 333.713C713.09 327.387 705.676 308.529 696.875 311.921Z" fill="url(#paint14_linear_8007_33431)"/>
<path d="M679.909 409.476L689.323 400.392L702.347 405.9C702.347 405.9 715.311 407.911 722.73 405.9C730.15 403.889 730.15 403.889 730.15 403.889L746.917 398.663L749.55 406.114C750.218 408.006 749.547 410.106 747.913 411.268C746.462 412.3 744.762 413.434 743.678 413.909C741.47 414.876 689.248 413.24 689.248 413.24L679.909 409.476Z" fill="url(#paint15_linear_8007_33431)"/>
<path d="M715.536 413.759C715.495 413.761 715.453 413.762 715.411 413.762L660.799 413.702C659.449 413.701 658.356 412.605 658.357 411.253C658.358 409.901 659.458 408.784 660.804 408.808L715.416 408.868C716.766 408.869 717.859 409.966 717.858 411.318C717.857 412.627 716.828 413.695 715.536 413.759Z" fill="url(#paint16_linear_8007_33431)"/>
<path d="M611.705 364.118H657.186C660.541 364.118 663.595 366.057 665.026 369.094L686.052 413.73H629.531C627.369 413.73 625.426 412.407 624.632 410.394L608.327 369.091C607.385 366.704 609.142 364.118 611.705 364.118Z" fill="url(#paint17_linear_8007_33431)"/>
<path d="M643.747 387.004C644.732 390.069 644.004 393.047 642.121 393.654C640.237 394.261 637.911 392.268 636.925 389.202C635.94 386.137 636.668 383.16 638.552 382.553C640.435 381.945 642.761 383.938 643.747 387.004Z" fill="url(#paint18_linear_8007_33431)"/>
<path d="M574.533 521.477C574.269 521.477 574.001 521.423 573.743 521.31C572.729 520.862 572.26 519.657 572.697 518.618L614.64 418.741C615.077 417.702 616.253 417.222 617.268 417.669C618.283 418.116 618.751 419.321 618.315 420.36L576.371 520.237C576.046 521.012 575.308 521.477 574.533 521.477Z" fill="#7D97F4"/>
<path d="M621.784 521.477C621.009 521.477 620.271 521.013 619.946 520.237L578.002 420.36C577.566 419.321 578.034 418.116 579.049 417.669C580.063 417.222 581.24 417.701 581.676 418.741L623.62 518.618C624.057 519.657 623.588 520.862 622.573 521.309C622.316 521.423 622.048 521.477 621.784 521.477Z" fill="#7D97F4"/>
<path d="M739.702 521.477C739.439 521.477 739.171 521.423 738.913 521.309C737.899 520.862 737.43 519.657 737.866 518.618L779.81 418.741C780.247 417.702 781.422 417.222 782.438 417.669C783.452 418.116 783.921 419.321 783.485 420.36L741.541 520.237C741.215 521.012 740.478 521.477 739.702 521.477Z" fill="#7D97F4"/>
<path d="M786.954 521.477C786.179 521.477 785.441 521.013 785.115 520.237L743.172 420.36C742.735 419.321 743.204 418.116 744.218 417.669C745.232 417.222 746.409 417.701 746.846 418.741L788.79 518.618C789.226 519.657 788.757 520.862 787.743 521.309C787.486 521.423 787.217 521.477 786.954 521.477Z" fill="#7D97F4"/>
<path d="M791.867 415.757C791.995 415.137 791.82 414.496 791.392 414.009C790.964 413.522 790.326 413.24 789.654 413.24H561.76C560.875 413.24 560.051 413.663 559.575 414.363C559.098 415.062 559.034 415.941 559.405 416.695L561.875 421.711C562.44 422.86 563.666 423.595 565.014 423.595H788.09C789.345 423.595 790.423 422.761 790.661 421.605L791.867 415.757Z" fill="#91B3FA"/>
<path d="M714.58 320.34C710.182 316.374 708.865 306.842 712.675 303.077C722.55 293.324 735.848 310.911 724.878 319.747C723.172 321.122 721.075 322.123 718.885 322.113C717.243 322.105 715.794 321.435 714.58 320.34Z" fill="white"/>
<path d="M686.491 314.531C685.971 316.424 687.669 318.181 689.579 317.741C691.502 317.299 693.868 316.899 695.918 316.979C709.756 317.519 704.365 326.515 704.365 327.954C704.365 330.898 707.255 326.422 707.42 327.414C707.779 329.574 703.334 336.076 703.334 336.076C703.334 336.076 714.968 334.252 717.843 329.933C720.719 325.615 719.717 315.897 717.86 312.41C716.094 309.095 708.256 304.203 704.286 304.185C700.445 304.167 689.358 304.094 686.491 314.531Z" fill="white"/>
<path d="M703.092 330.08C703.092 330.08 705.674 322.699 709.119 325.639C712.564 328.578 706.319 332.457 703.875 333.713L703.092 330.08Z" fill="url(#paint19_linear_8007_33431)"/>
<g opacity="0.74">
<path d="M255.737 295.969C255.701 295.969 255.666 295.967 255.63 295.962L247.976 295.033C247.601 294.988 247.296 294.709 247.218 294.339L245.911 288.244C243.148 287.21 240.572 285.755 238.25 283.916L232.36 285.953C232.004 286.077 231.607 285.959 231.375 285.662L226.619 279.587C226.386 279.289 226.367 278.876 226.573 278.558L229.956 273.32C228.727 270.622 227.931 267.771 227.589 264.838L221.99 262.111C221.65 261.946 221.453 261.582 221.498 261.207L222.426 253.545C222.471 253.17 222.75 252.865 223.12 252.785L229.208 251.477C230.241 248.711 231.694 246.132 233.531 243.807L231.496 237.911C231.373 237.554 231.49 237.157 231.787 236.924L237.855 232.163C238.153 231.93 238.565 231.911 238.882 232.116L244.114 235.503C246.809 234.274 249.657 233.477 252.587 233.134L255.311 227.528C255.475 227.188 255.837 226.991 256.214 227.036L263.867 227.965C264.242 228.01 264.547 228.289 264.626 228.659L265.933 234.754C268.696 235.788 271.271 237.243 273.594 239.082L279.483 237.045C279.84 236.921 280.236 237.038 280.469 237.335L285.225 243.411C285.458 243.708 285.477 244.121 285.272 244.439L281.888 249.677C283.117 252.374 283.912 255.226 284.255 258.159L289.855 260.886C290.194 261.051 290.392 261.414 290.346 261.79L289.418 269.452C289.373 269.827 289.095 270.133 288.725 270.212L282.637 271.52C281.604 274.286 280.151 276.865 278.314 279.19L280.349 285.086C280.472 285.444 280.355 285.84 280.058 286.073L273.99 290.834C273.693 291.067 273.281 291.086 272.963 290.881L267.73 287.494C265.036 288.724 262.188 289.52 259.258 289.863L256.534 295.469C256.383 295.777 256.072 295.969 255.737 295.969ZM238.388 283.111L238.542 283.235C240.896 285.125 243.52 286.607 246.341 287.641L246.526 287.708L247.916 294.189C247.931 294.261 247.99 294.314 248.063 294.323L255.716 295.252C255.788 295.261 255.859 295.223 255.89 295.158L258.786 289.197L258.982 289.176C261.969 288.847 264.871 288.036 267.607 286.764L267.786 286.681L273.349 290.282C273.41 290.322 273.49 290.318 273.547 290.273L279.616 285.512C279.673 285.467 279.695 285.391 279.672 285.322L277.508 279.053L277.632 278.899C279.519 276.543 281 273.915 282.033 271.09L282.1 270.905L288.573 269.514C288.645 269.499 288.699 269.44 288.707 269.368L289.635 261.705C289.644 261.633 289.606 261.563 289.54 261.531L283.586 258.632L283.565 258.435C283.237 255.445 282.426 252.54 281.156 249.8L281.073 249.621L284.67 244.052C284.71 243.991 284.706 243.911 284.661 243.853L279.905 237.778C279.861 237.721 279.785 237.698 279.715 237.722L273.454 239.888L273.3 239.765C270.946 237.875 268.323 236.392 265.5 235.359L265.315 235.291L263.926 228.81C263.911 228.739 263.852 228.685 263.78 228.676L256.126 227.747C256.054 227.738 255.984 227.777 255.952 227.842L253.056 233.802L252.86 233.824C249.873 234.153 246.971 234.964 244.235 236.236L244.056 236.319L238.493 232.718C238.432 232.678 238.353 232.682 238.295 232.727L232.227 237.488C232.17 237.533 232.147 237.609 232.171 237.678L234.334 243.947L234.211 244.101C232.323 246.457 230.843 249.084 229.81 251.909L229.742 252.095L223.269 253.485C223.197 253.501 223.144 253.56 223.135 253.632L222.207 261.294C222.198 261.367 222.236 261.437 222.301 261.469L228.255 264.368L228.277 264.564C228.604 267.554 229.415 270.46 230.686 273.199L230.769 273.379L227.172 278.948C227.132 279.009 227.136 279.089 227.181 279.146L231.937 285.221C231.982 285.279 232.058 285.301 232.127 285.278L238.388 283.111ZM256.096 280.394C255.326 280.394 254.552 280.347 253.775 280.253C250.363 279.839 247.133 278.51 244.433 276.409C244.278 276.288 244.25 276.063 244.371 275.907C244.492 275.751 244.716 275.723 244.872 275.844C247.469 277.865 250.578 279.144 253.861 279.543C263.851 280.756 272.96 273.607 274.171 263.608C275.382 253.609 268.242 244.487 258.254 243.275C248.265 242.062 239.156 249.211 237.944 259.21C237.788 260.504 237.768 261.812 237.886 263.099C237.904 263.296 237.759 263.47 237.563 263.488C237.368 263.508 237.193 263.362 237.175 263.165C237.052 261.827 237.073 260.468 237.235 259.124C238.494 248.733 247.962 241.306 258.34 242.565C268.719 243.825 276.139 253.303 274.881 263.694C274.271 268.727 271.74 273.222 267.754 276.35C264.383 278.994 260.312 280.394 256.096 280.394Z" fill="white"/>
<path d="M255.923 268.715C255.048 268.715 254.171 268.553 253.33 268.228C249.625 266.798 247.772 262.616 249.2 258.906C250.629 255.196 254.806 253.341 258.512 254.771C262.218 256.201 264.071 260.383 262.642 264.093C261.95 265.891 260.6 267.311 258.842 268.091C257.907 268.506 256.916 268.715 255.923 268.715ZM249.867 259.163C248.58 262.505 250.249 266.272 253.587 267.561C255.204 268.185 256.967 268.141 258.552 267.438C260.136 266.734 261.352 265.455 261.975 263.836C263.262 260.494 261.593 256.727 258.255 255.438C254.917 254.15 251.154 255.821 249.867 259.163Z" fill="white"/>
<path d="M310.758 246.55C310.582 246.55 310.41 246.473 310.292 246.333L308.422 244.12C307.058 244.292 305.685 244.262 304.335 244.028L302.368 246.154C302.19 246.345 301.911 246.402 301.673 246.298L298.281 244.799C298.042 244.694 297.897 244.449 297.918 244.189L298.159 241.301C297.076 240.461 296.129 239.467 295.336 238.342L292.443 238.452C292.186 238.461 291.944 238.305 291.849 238.062L290.509 234.601C290.414 234.357 290.485 234.081 290.684 233.913L292.895 232.04C292.722 230.675 292.753 229.301 292.986 227.949L290.863 225.98C290.673 225.802 290.615 225.523 290.72 225.284L292.216 221.887C292.321 221.649 292.568 221.503 292.826 221.525L295.71 221.766C296.549 220.683 297.542 219.733 298.666 218.94L298.556 216.043C298.546 215.782 298.703 215.543 298.946 215.449L302.403 214.107C302.646 214.013 302.923 214.083 303.091 214.282L304.961 216.496C306.325 216.323 307.697 216.354 309.047 216.587L311.014 214.462C311.191 214.27 311.471 214.213 311.709 214.318L315.102 215.816C315.34 215.921 315.486 216.167 315.465 216.426L315.223 219.314C316.306 220.155 317.254 221.149 318.046 222.273L320.94 222.163C321.202 222.155 321.438 222.31 321.533 222.553L322.874 226.014C322.968 226.258 322.897 226.534 322.699 226.703L320.488 228.575C320.66 229.941 320.629 231.315 320.396 232.666L322.519 234.636C322.71 234.813 322.768 235.093 322.663 235.331L321.166 238.728C321.061 238.966 320.817 239.113 320.556 239.091L317.672 238.85C316.832 239.933 315.839 240.883 314.716 241.675L314.826 244.572C314.836 244.834 314.679 245.072 314.436 245.166L310.979 246.509C310.907 246.536 310.832 246.55 310.758 246.55ZM308.713 243.357L310.789 245.815L314.109 244.526L313.987 241.309L314.15 241.198C315.331 240.389 316.364 239.401 317.221 238.261L317.34 238.104L320.541 238.371L321.978 235.11L319.622 232.923L319.658 232.729C319.921 231.327 319.953 229.897 319.753 228.478L319.725 228.283L322.18 226.204L320.892 222.881L317.679 223.003L317.568 222.84C316.76 221.658 315.774 220.623 314.635 219.765L314.477 219.646L314.745 216.44L311.487 215.002L309.303 217.361L309.109 217.324C307.708 217.061 306.28 217.029 304.863 217.229L304.668 217.256L302.592 214.799L299.272 216.088L299.394 219.304L299.231 219.416C298.049 220.225 297.016 221.213 296.159 222.352L296.041 222.51L292.839 222.242L291.402 225.504L293.758 227.691L293.722 227.885C293.46 229.287 293.428 230.717 293.627 232.135L293.655 232.331L291.2 234.409L292.488 237.733L295.7 237.61L295.812 237.773C296.62 238.955 297.606 239.99 298.745 240.848L298.902 240.967L298.635 244.172L301.893 245.611L304.077 243.252L304.271 243.289C305.672 243.552 307.1 243.584 308.517 243.384L308.713 243.357ZM306.764 239.605C305.488 239.605 304.214 239.339 303.012 238.808C301.468 238.127 300.141 237.041 299.172 235.669C299.058 235.508 299.097 235.285 299.258 235.171C299.419 235.057 299.642 235.095 299.756 235.256C300.649 236.522 301.875 237.524 303.3 238.153C305.4 239.08 307.734 239.133 309.873 238.303C312.012 237.472 313.7 235.857 314.626 233.755C315.552 231.653 315.605 229.316 314.776 227.175C313.946 225.033 312.333 223.343 310.234 222.416C308.134 221.489 305.8 221.436 303.661 222.266C301.522 223.097 299.833 224.712 298.907 226.814C298.66 227.376 298.472 227.962 298.35 228.558C298.31 228.751 298.122 228.876 297.928 228.836C297.734 228.796 297.61 228.607 297.65 228.414C297.783 227.768 297.986 227.133 298.253 226.525C299.256 224.249 301.085 222.499 303.402 221.599C305.719 220.7 308.247 220.757 310.521 221.761C312.795 222.765 314.543 224.596 315.442 226.915C316.34 229.235 316.283 231.767 315.28 234.043C314.277 236.32 312.449 238.069 310.131 238.969C309.039 239.394 307.901 239.605 306.764 239.605Z" fill="white"/>
</g>
<path d="M260.065 159.227L266.349 181.9C267.202 184.977 266.684 188.274 264.92 190.935C260.488 197.617 249.653 209.683 226.68 215.839C203.348 222.09 190.14 215.658 184.456 211.421C182.397 209.887 180.902 207.72 180.194 205.251L173.315 181.24L260.065 159.227Z" fill="url(#paint20_linear_8007_33431)"/>
<path d="M210.326 130.044L275.674 148.37C279.039 149.314 279.992 153.632 277.337 155.906C264.383 166.997 234.944 192.831 223.794 207.835C222.601 209.44 220.47 210.023 218.624 209.258L152.504 181.857C149.513 180.617 148.858 176.667 151.291 174.529C164.119 163.254 196.764 135.023 207.375 130.257C208.303 129.84 209.347 129.77 210.326 130.044Z" fill="url(#paint21_linear_8007_33431)"/>
<path d="M211.74 163.841C211.74 163.841 176.902 185.841 174.247 190.867C171.592 195.893 176.936 218.742 176.936 218.742C171.452 238.081 170.64 259.08 179.904 270.066C179.904 270.066 191.326 244.636 186.223 233.918C181.121 223.199 179.154 218.805 179.154 218.805C179.154 218.805 174.69 194.448 176.102 190.966C176.102 190.966 214.697 165.234 211.74 163.841Z" fill="url(#paint22_linear_8007_33431)"/>
<path d="M266.88 154.438L233.436 187.466L225.075 195.723L222.985 197.787L221.941 198.813C221.615 199.134 221.247 199.408 220.86 199.649C219.302 200.608 217.316 200.836 215.574 200.224L193.303 192.754C193.127 192.695 192.937 192.79 192.878 192.966C192.819 193.141 192.913 193.331 193.087 193.391L215.302 201.029C217.259 201.734 219.535 201.5 221.323 200.415C221.768 200.143 222.192 199.831 222.568 199.468L223.626 198.442L225.732 196.394L234.155 188.201L267.847 155.428C268.121 155.161 268.128 154.723 267.862 154.449C267.595 154.174 267.157 154.168 266.883 154.434L266.88 154.438Z" fill="#91B3FA"/>
<path d="M179.486 230.493L179.552 230.563L179.629 230.655L179.786 230.841L180.087 231.246C180.285 231.52 180.459 231.82 180.648 232.106L181.144 233.02C181.299 233.331 181.434 233.655 181.581 233.971C181.735 234.285 181.849 234.617 181.968 234.948C182.085 235.279 182.215 235.605 182.322 235.94L182.607 236.959C182.699 237.3 182.81 237.636 182.866 237.986L183.074 239.028C183.14 239.376 183.225 239.721 183.256 240.076C183.339 240.781 183.434 241.486 183.509 242.194L183.611 244.331C183.618 244.509 183.633 244.687 183.633 244.866L183.621 245.401L183.596 246.474C183.608 247.906 183.413 249.33 183.297 250.76C183.274 251.118 183.216 251.472 183.158 251.826L182.991 252.891C182.876 253.6 182.775 254.311 182.649 255.019C182.332 256.422 182.045 257.832 181.704 259.231L180.533 263.393L180.529 263.405C180.493 263.533 180.568 263.666 180.695 263.702C180.821 263.738 180.952 263.666 180.99 263.542L182.278 259.386C182.658 257.986 182.985 256.57 183.342 255.161C183.488 254.449 183.609 253.731 183.744 253.016L183.941 251.943C184.009 251.585 184.077 251.228 184.111 250.864C184.266 249.416 184.501 247.973 184.528 246.51L184.582 245.415L184.608 244.867C184.613 244.685 184.603 244.501 184.601 244.318L184.552 242.121C184.495 241.389 184.416 240.658 184.348 239.926C184.324 239.559 184.247 239.198 184.187 238.834L183.999 237.744C183.949 237.378 183.843 237.023 183.756 236.663L183.484 235.586C183.381 235.231 183.253 234.881 183.138 234.527C183.021 234.174 182.908 233.82 182.753 233.479C182.606 233.136 182.469 232.788 182.312 232.448L181.799 231.443C181.599 231.12 181.418 230.789 181.201 230.472L180.867 229.998L180.681 229.765L180.585 229.647L180.469 229.518C180.213 229.234 179.776 229.211 179.492 229.467C179.208 229.724 179.186 230.161 179.442 230.445C179.444 230.448 179.447 230.451 179.45 230.454L179.486 230.493Z" fill="#91B3FA"/>
<path d="M178.422 239.493L178.423 240.855L178.412 242.389L178.372 245.464L178.266 251.617L178.019 263.925C178.014 264.133 178.178 264.305 178.386 264.31C178.59 264.315 178.76 264.154 178.77 263.951L179.333 251.65L179.597 245.498L179.716 242.419L179.767 240.876L179.786 240.098L179.794 239.707C179.793 239.539 179.781 239.34 179.765 239.16C179.73 238.789 179.402 238.517 179.032 238.551C178.684 238.584 178.422 238.877 178.422 239.22V239.493Z" fill="#91B3FA"/>
<path opacity="0.69" d="M643.283 227.971L749.077 229.408C753.151 229.463 756.363 232.474 756.164 236.052L754.402 267.677C754.214 271.051 751.047 273.702 747.204 273.702H643.172C639.192 273.702 635.965 270.865 635.965 267.367V234.306C635.965 230.769 639.26 227.917 643.283 227.971Z" fill="white"/>
<path d="M745.015 179.039C754.191 176.846 759.854 167.621 757.663 158.435C755.473 149.248 746.259 143.579 737.083 145.772C727.907 147.965 722.244 157.19 724.434 166.376C726.625 175.562 735.839 181.232 745.015 179.039Z" fill="white"/>
<path d="M714.395 168.864C717.953 160.116 713.754 150.138 705.016 146.577C696.279 143.016 686.312 147.22 682.755 155.967C679.198 164.714 683.397 174.692 692.134 178.253C700.871 181.815 710.838 177.611 714.395 168.864Z" fill="white"/>
<path d="M668.197 175.092C674.867 168.414 674.867 157.587 668.197 150.909C661.526 144.231 650.712 144.231 644.041 150.909C637.371 157.587 637.371 168.414 644.041 175.092C650.712 181.77 661.526 181.77 668.197 175.092Z" fill="white"/>
<path d="M730.876 158.824C730.347 160.111 730.054 161.52 730.054 162.997C730.054 169.063 734.966 173.981 741.025 173.981C747.084 173.981 751.996 169.064 751.996 162.997C751.996 156.931 747.084 152.013 741.025 152.013C740.84 152.013 740.655 152.018 740.472 152.027V149.243C740.656 149.236 740.84 149.231 741.025 149.231C748.619 149.231 754.776 155.394 754.776 162.997C754.776 170.6 748.619 176.763 741.025 176.763C733.431 176.763 727.274 170.6 727.274 162.997C727.274 161.125 727.648 159.34 728.324 157.713L730.876 158.824Z" fill="url(#paint23_linear_8007_33431)"/>
<path d="M692.915 172.29C694.608 173.36 696.612 173.981 698.761 173.981C704.82 173.981 709.733 169.063 709.733 162.997C709.733 156.931 704.821 152.013 698.761 152.013C698.575 152.013 698.391 152.018 698.208 152.027V149.243C698.391 149.235 698.576 149.23 698.761 149.23C706.355 149.23 712.512 155.394 712.512 162.997C712.512 170.6 706.355 176.763 698.761 176.763C696.111 176.763 693.636 176.012 691.537 174.711L692.915 172.29Z" fill="url(#paint24_linear_8007_33431)"/>
<path d="M646.969 169.173C648.943 172.075 652.27 173.981 656.042 173.981C662.101 173.981 667.013 169.063 667.013 162.997C667.013 156.931 662.101 152.013 656.042 152.013C655.856 152.013 655.672 152.018 655.489 152.027V149.243C655.672 149.235 655.857 149.23 656.042 149.23C663.636 149.23 669.793 155.394 669.793 162.997C669.793 170.6 663.636 176.763 656.042 176.763C651.344 176.763 647.197 174.404 644.716 170.805L646.969 169.173Z" fill="url(#paint25_linear_8007_33431)"/>
<g opacity="0.69">
<path d="M727.109 186.781H754.943C756.69 186.781 758.107 188.199 758.107 189.948C758.107 191.698 756.69 193.115 754.943 193.115H727.109C725.362 193.115 723.945 191.698 723.945 189.948C723.945 188.2 725.362 186.781 727.109 186.781Z" fill="white"/>
<path d="M684.658 186.781H712.493C714.24 186.781 715.656 188.199 715.656 189.948C715.656 191.698 714.24 193.115 712.493 193.115H684.658C682.911 193.115 681.495 191.698 681.495 189.948C681.495 188.2 682.911 186.781 684.658 186.781Z" fill="white"/>
<path d="M670.042 193.115H642.207C640.46 193.115 639.044 191.698 639.044 189.948C639.044 188.199 640.46 186.781 642.207 186.781H670.042C671.789 186.781 673.205 188.199 673.205 189.948C673.205 191.698 671.789 193.115 670.042 193.115Z" fill="white"/>
<path d="M727.109 196.634H754.943C756.69 196.634 758.107 198.052 758.107 199.801V218.452C758.107 220.201 756.69 221.619 754.943 221.619H727.109C725.362 221.619 723.945 220.201 723.945 218.452V199.801C723.945 198.053 725.362 196.634 727.109 196.634Z" fill="white"/>
<path d="M684.658 196.634H712.493C714.24 196.634 715.656 198.052 715.656 199.801V218.452C715.656 220.201 714.24 221.619 712.493 221.619H684.658C682.911 221.619 681.495 220.201 681.495 218.452V199.801C681.495 198.053 682.911 196.634 684.658 196.634Z" fill="white"/>
<path d="M642.207 196.634H670.042C671.789 196.634 673.205 198.052 673.205 199.801V218.452C673.205 220.201 671.789 221.619 670.042 221.619H642.207C640.46 221.619 639.044 220.201 639.044 218.452V199.801C639.044 198.053 640.461 196.634 642.207 196.634Z" fill="white"/>
</g>
<path d="M602.4 78.4472L757.739 76.5968C760.785 76.5604 761.502 78.9898 761.495 80.3284L761.837 131.31C761.83 132.657 760.471 133.788 757.405 133.772C729.316 133.628 606.786 133.096 601.283 133.241C595.843 133.385 598.028 92.9672 598.758 82.5802C598.847 81.2957 599.477 78.4819 602.4 78.4472Z" fill="url(#paint26_linear_8007_33431)"/>
<path d="M757.558 132.107L757.534 132.107C735.203 132.031 622.761 131.653 602.139 131.707L602.026 131.707L601.978 131.605C599.988 127.411 599.887 110.275 601.719 87.9477C601.743 87.6593 602.163 87.5524 602.515 87.5485L757.854 85.7788C758.111 85.7763 758.272 85.8202 758.37 85.8574C758.62 85.9504 758.671 86.0924 758.67 86.195L758.352 131.686C758.35 131.973 757.952 132.104 757.558 132.107ZM607.347 131.344C637.156 131.344 736.672 131.678 757.536 131.75L757.559 131.75C757.788 131.748 757.947 131.691 757.995 131.654L758.313 86.2244C758.301 86.217 758.28 86.2056 758.246 86.1925C758.176 86.1663 758.059 86.1345 757.858 86.137L602.52 87.9067C602.238 87.9099 602.087 87.9849 602.064 88.0121C600.263 110.067 600.335 127.036 602.254 131.35C603.593 131.346 605.308 131.344 607.347 131.344Z" fill="#91B3FA"/>
<path d="M678.722 99.3908C678.088 98.7343 677.215 98.3641 676.304 98.3655L614.552 98.4741C613.647 98.4756 612.782 98.8433 612.151 99.4938C611.521 100.144 611.18 101.022 611.205 101.928L611.814 123.374C611.866 125.187 613.345 126.631 615.157 126.636L675.506 126.814C677.314 126.819 678.801 125.388 678.867 123.579L679.66 101.846C679.693 100.934 679.355 100.047 678.722 99.3908Z" fill="#91B3FA"/>
<path d="M688.45 90.6359L610.752 91.3944C609.878 91.4029 609.283 92.2976 609.283 93.3916V93.427C609.283 94.5211 609.892 95.4095 610.765 95.4119L688.518 95.642C689.882 95.6462 690.966 94.5313 690.962 93.1531L690.949 93.1085C690.944 91.7295 689.815 90.6224 688.45 90.6359Z" fill="#BDD0FB"/>
<path d="M751.184 99.6669C750.771 99.2366 750.107 98.9892 749.511 98.987L687.226 98.7676C686.614 98.7655 686.006 99.0175 685.588 99.4641C685.17 99.9112 684.946 100.511 684.988 101.122L685.069 102.37C685.15 103.53 686.115 104.427 687.276 104.419L749.592 103.989C750.77 103.981 751.92 103.052 751.963 101.874L751.984 101.28C752.006 100.684 751.597 100.097 751.184 99.6669Z" fill="#91B3FA"/>
<path d="M750.873 108.156C750.46 107.726 749.796 107.478 749.2 107.476L686.915 107.257C686.304 107.255 685.696 107.507 685.278 107.953C684.86 108.4 684.635 109.001 684.677 109.612L684.759 110.859C684.84 112.019 685.805 112.916 686.966 112.908L749.282 112.479C750.459 112.47 751.609 111.542 751.652 110.363L751.674 109.769C751.696 109.173 751.286 108.587 750.873 108.156Z" fill="#91B3FA"/>
<path d="M750.563 116.646C750.15 116.215 749.487 115.968 748.89 115.966L686.605 115.746C685.994 115.744 685.386 115.996 684.968 116.443C684.55 116.89 684.325 117.49 684.367 118.101L684.449 119.349C684.53 120.509 685.494 121.406 686.656 121.397L748.972 120.968C750.149 120.96 751.299 120.031 751.342 118.853L751.364 118.259C751.386 117.663 750.976 117.076 750.563 116.646Z" fill="#91B3FA"/>
<path d="M737.566 81.1772C737.551 82.8127 736.124 84.1311 734.49 84.123L732.269 84.1113C730.636 84.1032 729.16 82.7692 729.175 81.1333L729.176 81.0604C729.19 79.4248 730.615 78.106 732.249 78.1142L734.471 78.1258C736.104 78.134 737.581 79.468 737.566 81.1039L737.566 81.1772Z" fill="#BDD0FB"/>
<path d="M746.889 81.2235C746.874 82.8591 745.527 84.1782 743.893 84.1701L741.866 84.1602C740.232 84.152 738.949 82.8194 738.964 81.1839L738.965 81.111C738.98 79.4754 740.251 78.1556 741.885 78.1637L743.95 78.174C745.584 78.1821 746.904 79.5147 746.889 81.1506L746.889 81.2235Z" fill="#BDD0FB"/>
<path d="M756.212 81.2696C756.197 82.9051 754.93 84.2253 753.296 84.2168L751.229 84.2066C749.595 84.1984 748.272 82.8659 748.287 81.2299L748.288 81.157C748.302 79.5215 749.654 78.2023 751.288 78.2105L753.313 78.2204C754.947 78.2285 756.227 79.5611 756.212 81.1967L756.212 81.2696Z" fill="#BDD0FB"/>
<path d="M758.072 68.0042H601.587C599.452 68.0042 597.705 66.2554 597.705 64.118V54.7251C597.705 52.5877 599.452 50.8389 601.587 50.8389H758.072C760.207 50.8389 761.953 52.5877 761.953 54.7251V64.118C761.953 66.2551 760.207 68.0042 758.072 68.0042Z" fill="url(#paint27_linear_8007_33431)"/>
<path d="M732.918 59.1154C732.9 61.1913 731.089 62.8647 729.015 62.8544L726.197 62.8396C724.123 62.8293 722.25 61.1361 722.269 59.0602L722.27 58.9678C722.288 56.892 724.096 55.2185 726.17 55.2288L728.99 55.2437C731.063 55.2539 732.938 56.9472 732.919 59.023L732.918 59.1154Z" fill="#BDD0FB"/>
<path d="M744.751 59.1742C744.732 61.2501 743.022 62.9246 740.949 62.914L738.376 62.9012C736.302 62.8909 734.675 61.1998 734.693 59.124L734.694 59.0312C734.712 56.9554 736.326 55.2802 738.399 55.2905L741.021 55.3035C743.094 55.3138 744.77 57.0053 744.751 59.0811L744.751 59.1742Z" fill="#BDD0FB"/>
<path d="M756.583 59.2326C756.565 61.3085 754.957 62.9837 752.883 62.9734L750.259 62.9603C748.186 62.9501 746.507 61.2586 746.526 59.1827L746.526 59.09C746.545 57.0141 748.26 55.34 750.334 55.3503L752.905 55.363C754.978 55.3733 756.603 57.0644 756.584 59.1403L756.583 59.2326Z" fill="#BDD0FB"/>
<path d="M716.396 61.9005H669.663C668.309 61.9005 667.202 60.7916 667.202 59.4364V58.9225C667.202 57.5673 668.309 56.4584 669.663 56.4584H716.396C717.75 56.4584 718.857 57.5673 718.857 58.9225V59.4364C718.857 60.7916 717.75 61.9005 716.396 61.9005Z" fill="#BDD0FB"/>
<path d="M318.497 458.687L318.627 458.98L318.87 458.687H318.497Z" fill="url(#paint28_linear_8007_33431)"/>
<path d="M446.655 293.568C443.131 284.551 437.884 277.559 432.123 270.664C427.785 265.47 421.03 262.959 414.35 264.016C382.923 268.987 339.677 273.316 320.456 275.74C313.744 276.586 307.605 279.969 303.181 285.094C286.687 304.204 251.736 354.518 285.273 407.481C285.623 408.035 286.238 408.369 286.893 408.369H311.298C312.058 407.193 312.297 406.824 313.057 405.649C305.96 389.821 306.951 372.477 314.893 353.438C315.585 351.778 317.971 351.884 318.511 353.6C324.716 373.281 328.402 391.332 330.587 406.713C330.722 407.662 331.531 408.369 332.488 408.369H407.038C407.972 408.369 408.765 407.696 408.927 406.775C415.805 367.517 434.201 325.093 440.231 311.798C441.43 309.156 443.541 306.996 446.182 305.8C447.005 305.427 447.818 305.042 448.623 304.656C449.477 304.247 449.903 303.279 449.636 302.369C448.768 299.407 447.786 296.461 446.655 293.568Z" fill="url(#paint29_linear_8007_33431)"/>
<path d="M512.97 253.068C511.241 251.384 511.321 248.58 513.142 246.998L728.354 54.7569C728.958 54.2178 729.826 54.0943 730.556 54.444C731.836 55.0574 732.092 56.7722 731.047 57.7342L518.629 253.149C517.02 254.629 514.536 254.594 512.97 253.068Z" fill="url(#paint30_linear_8007_33431)"/>
<path d="M313.814 343.85C307.449 325.508 308.778 304.244 309.206 299.245C309.258 298.646 309.792 298.211 310.388 298.279C310.961 298.344 311.378 298.852 311.328 299.427C310.912 304.257 309.588 325.165 315.823 343.135C316.014 343.688 315.734 344.292 315.185 344.493L315.184 344.493C314.628 344.697 314.009 344.41 313.814 343.85Z" fill="url(#paint31_linear_8007_33431)"/>
<path d="M517.537 274.382C487.629 285.325 420.514 264.036 420.514 264.036L419.51 314.355C470.547 330.51 503.758 325.806 525.355 312.248C526.698 296.839 522.072 283.428 517.537 274.382Z" fill="url(#paint32_linear_8007_33431)"/>
<path d="M565.156 220.579L552.639 218.097C552.639 218.097 549.226 257.968 521.348 272.707C520.154 273.338 518.877 273.892 517.538 274.382C522.072 283.427 526.698 296.839 525.355 312.248C569.241 284.698 565.156 220.579 565.156 220.579Z" fill="url(#paint33_linear_8007_33431)"/>
<path d="M553.274 221.573L552.639 218.097C552.639 218.097 550.029 209.609 556.935 201.252C566.917 189.173 573.958 192.673 573.958 192.673C573.958 192.673 573.705 196.198 573.74 198.489C573.769 200.338 575.256 201.055 576.616 199.803L593.639 184.143C593.639 184.143 598.195 208.838 563.257 225.199L553.274 221.573Z" fill="url(#paint34_linear_8007_33431)"/>
<path d="M352.321 233.57L350.077 272.757C350.011 273.913 350.764 274.955 351.885 275.238C356.852 276.493 370.582 278.989 382.531 272.182C384.08 271.3 384.797 269.441 384.31 267.725L374.317 232.514L352.321 233.57Z" fill="url(#paint35_linear_8007_33431)"/>
<path d="M383.435 193.659C383.435 193.659 394.382 218.833 395.117 232.046C395.852 245.26 398.696 253.834 383.435 256.494C368.175 259.155 355.319 251.544 348.354 238.382C348.354 238.382 337.442 218.101 339.89 209.795C342.338 201.489 383.435 193.659 383.435 193.659Z" fill="url(#paint36_linear_8007_33431)"/>
<path d="M353.569 228.919L354.438 228.536C355.543 228.048 356.016 226.73 355.461 225.655C353.309 221.492 349.114 211.953 354.533 209.728C361.518 206.861 389.184 201.212 395.153 191.384C400.89 181.938 395.807 169.745 388.168 166.277C387.656 166.045 387.054 166.229 386.791 166.726L386.155 167.932C385.719 168.758 384.501 168.633 384.242 167.736C383.993 166.875 382.849 166.708 382.374 167.468C380.539 170.408 375.586 175.175 362.339 177.623C343.512 181.101 331.065 188.729 330.755 201.753C330.735 202.581 329.856 203.041 329.15 202.61C327.76 201.762 325.535 201.364 322.562 203.867C317.392 208.219 319.508 219.51 330.842 228.797C331.38 229.238 331.376 230.08 330.793 230.46C328.738 231.799 325.675 234.985 333.612 239.233C341.821 243.626 347.952 243.266 350.313 242.876C350.9 242.779 351.278 242.21 351.15 241.628L348.631 230.181C348.488 229.533 348.981 228.919 349.644 228.919H353.569Z" fill="url(#paint37_linear_8007_33431)"/>
<path d="M354.043 231.334C354.043 231.334 349.867 215.253 342.665 219.762C335.463 224.271 346.402 237.78 352.192 238.382L354.043 231.334Z" fill="url(#paint38_linear_8007_33431)"/>
<path d="M428.522 342.899L429.09 343.808C429.147 343.897 429.12 344.014 429.031 344.07C428.943 344.127 428.825 344.1 428.769 344.011C428.768 344.01 428.767 344.008 428.767 344.007L428.217 343.085C428.167 343 428.194 342.89 428.279 342.839C428.362 342.79 428.471 342.817 428.522 342.899Z" fill="white"/>
<path d="M430.434 345.917L431.017 346.815C431.087 346.92 431.058 347.063 430.952 347.132C430.847 347.201 430.705 347.172 430.636 347.067C430.635 347.066 430.633 347.063 430.632 347.062L430.066 346.149C430.003 346.047 430.035 345.913 430.136 345.849C430.237 345.787 430.369 345.818 430.434 345.917Z" fill="white"/>
<path d="M432.398 348.898L432.998 349.787C433.08 349.906 433.049 350.069 432.93 350.151C432.811 350.233 432.648 350.203 432.566 350.083C432.566 350.083 432.563 350.079 432.563 350.078L431.976 349.178C431.899 349.061 431.932 348.904 432.049 348.827C432.165 348.751 432.321 348.784 432.398 348.898Z" fill="white"/>
<path d="M434.42 351.842L435.039 352.714L435.04 352.716C435.133 352.847 435.103 353.029 434.972 353.122C434.841 353.215 434.66 353.184 434.567 353.053C434.566 353.052 434.565 353.05 434.564 353.049L433.956 352.163C433.868 352.035 433.901 351.859 434.029 351.77C434.156 351.683 434.329 351.714 434.418 351.839L434.42 351.842Z" fill="white"/>
<path d="M436.511 354.73L437.155 355.585L437.157 355.587C437.263 355.727 437.235 355.928 437.094 356.034C436.953 356.141 436.753 356.113 436.647 355.972C436.646 355.971 436.644 355.969 436.644 355.967L436.011 355.098C435.91 354.959 435.94 354.765 436.079 354.664C436.216 354.563 436.408 354.592 436.51 354.727L436.511 354.73Z" fill="white"/>
<path d="M438.686 357.555L439.355 358.389L439.357 358.392C439.477 358.542 439.453 358.761 439.304 358.882C439.154 359.002 438.935 358.978 438.814 358.828C438.814 358.827 438.811 358.825 438.811 358.824L438.151 357.974C438.036 357.826 438.063 357.613 438.211 357.497C438.357 357.383 438.568 357.408 438.684 357.552L438.686 357.555Z" fill="white"/>
<path d="M440.946 360.31L441.641 361.122L441.644 361.125C441.779 361.283 441.761 361.521 441.603 361.656C441.445 361.792 441.207 361.773 441.072 361.616C441.071 361.615 441.069 361.612 441.068 361.611L440.381 360.782C440.251 360.626 440.273 360.393 440.429 360.264C440.584 360.135 440.813 360.155 440.943 360.307L440.946 360.31Z" fill="white"/>
<path d="M443.295 362.988L444.014 363.777L444.017 363.78C444.166 363.944 444.155 364.198 443.992 364.347C443.828 364.497 443.575 364.485 443.425 364.322L443.423 364.319L442.705 363.517C442.559 363.354 442.573 363.103 442.736 362.957C442.898 362.812 443.145 362.825 443.292 362.985L443.295 362.988Z" fill="white"/>
<path d="M445.727 365.587L446.476 366.348L446.479 366.352C446.641 366.517 446.64 366.782 446.475 366.944C446.31 367.107 446.045 367.105 445.883 366.94L445.88 366.937L445.132 366.161C444.974 365.997 444.979 365.735 445.143 365.576C445.306 365.418 445.565 365.422 445.724 365.584L445.727 365.587Z" fill="white"/>
<path d="M448.256 368.089L449.034 368.819L449.038 368.823C449.214 368.988 449.223 369.264 449.058 369.44C448.893 369.616 448.617 369.625 448.442 369.46L448.438 369.457L447.66 368.712C447.488 368.547 447.482 368.274 447.646 368.102C447.809 367.931 448.08 367.924 448.252 368.086L448.256 368.089Z" fill="white"/>
<path d="M450.885 370.483L451.693 371.178L451.698 371.182C451.888 371.345 451.91 371.632 451.746 371.822C451.583 372.013 451.297 372.034 451.107 371.871L451.104 371.868L450.293 371.157C450.107 370.994 450.088 370.71 450.251 370.524C450.414 370.338 450.694 370.319 450.88 370.479L450.885 370.483Z" fill="white"/>
<path d="M453.616 372.755L454.456 373.411L454.461 373.415C454.666 373.575 454.703 373.871 454.543 374.077C454.383 374.282 454.087 374.319 453.882 374.159L453.878 374.156L453.034 373.484C452.833 373.323 452.799 373.03 452.96 372.828C453.119 372.628 453.409 372.594 453.61 372.751L453.616 372.755Z" fill="white"/>
<path d="M456.452 374.889L457.324 375.5L457.33 375.505C457.551 375.66 457.605 375.965 457.45 376.186C457.295 376.407 456.991 376.461 456.77 376.306L456.766 376.303L455.888 375.675C455.67 375.52 455.62 375.218 455.775 375C455.929 374.784 456.228 374.733 456.445 374.885L456.452 374.889Z" fill="white"/>
<path d="M459.395 376.868L460.299 377.428L460.306 377.432C460.544 377.58 460.617 377.892 460.47 378.13C460.323 378.368 460.011 378.442 459.774 378.294L459.769 378.291L458.856 377.713C458.623 377.565 458.553 377.255 458.701 377.021C458.848 376.789 459.154 376.719 459.387 376.863L459.395 376.868Z" fill="white"/>
<path d="M462.445 378.67L463.38 379.173L463.389 379.178C463.644 379.315 463.739 379.633 463.603 379.888C463.466 380.143 463.148 380.238 462.893 380.102L462.889 380.099L461.941 379.577C461.69 379.439 461.599 379.123 461.737 378.872C461.874 378.623 462.186 378.531 462.436 378.665L462.445 378.67Z" fill="white"/>
<path d="M465.598 380.275L466.564 380.714L466.574 380.718C466.846 380.842 466.966 381.164 466.843 381.436C466.719 381.708 466.398 381.829 466.126 381.705L466.121 381.703L465.14 381.244C464.871 381.119 464.755 380.8 464.88 380.531C465.005 380.264 465.321 380.148 465.588 380.269L465.598 380.275Z" fill="white"/>
<path d="M468.847 381.665L469.841 382.038L469.852 382.042C470.135 382.148 470.279 382.464 470.173 382.747C470.067 383.031 469.752 383.175 469.469 383.069L469.467 383.068L468.452 382.684C468.17 382.577 468.027 382.262 468.134 381.98C468.241 381.697 468.556 381.555 468.838 381.662L468.847 381.665Z" fill="white"/>
<path d="M472.186 382.816L473.202 383.11L473.215 383.114C473.508 383.199 473.677 383.506 473.593 383.8C473.508 384.094 473.201 384.263 472.907 384.178L472.906 384.178L471.866 383.873C471.573 383.787 471.406 383.481 471.491 383.188C471.577 382.895 471.883 382.728 472.175 382.813L472.186 382.816Z" fill="white"/>
<path d="M475.599 383.702L476.635 383.912L476.649 383.915C476.951 383.977 477.147 384.272 477.085 384.575C477.024 384.878 476.728 385.074 476.426 385.012L476.424 385.012L475.362 384.792C475.06 384.73 474.866 384.435 474.929 384.133C474.991 383.831 475.286 383.637 475.587 383.699L475.599 383.702Z" fill="white"/>
<path d="M479.072 384.303L480.122 384.427L480.136 384.429C480.445 384.466 480.667 384.747 480.631 385.057C480.594 385.367 480.313 385.589 480.004 385.552H480.002L478.924 385.421C478.616 385.384 478.396 385.103 478.433 384.794C478.47 384.485 478.751 384.264 479.06 384.302L479.072 384.303Z" fill="white"/>
<path d="M482.582 384.617L483.639 384.656L483.653 384.656C483.968 384.668 484.213 384.933 484.202 385.249C484.19 385.564 483.925 385.81 483.61 385.798H483.609L482.525 385.754C482.211 385.742 481.967 385.476 481.979 385.162C481.992 384.848 482.257 384.603 482.571 384.616L482.582 384.617Z" fill="white"/>
<path d="M486.108 384.652L487.166 384.611L487.179 384.611C487.497 384.599 487.765 384.847 487.777 385.165C487.79 385.484 487.542 385.752 487.224 385.765H487.222L486.139 385.803C485.822 385.814 485.555 385.566 485.544 385.248C485.533 384.931 485.781 384.664 486.098 384.653L486.108 384.652Z" fill="white"/>
<path d="M489.63 384.426L490.683 384.31L490.694 384.308C491.014 384.273 491.302 384.504 491.337 384.824C491.372 385.144 491.141 385.432 490.822 385.468H490.82L489.743 385.583C489.424 385.617 489.138 385.385 489.104 385.066C489.07 384.747 489.301 384.461 489.62 384.427L489.63 384.426Z" fill="white"/>
<path d="M493.131 383.958L494.175 383.773L494.185 383.772C494.505 383.715 494.81 383.929 494.867 384.249C494.923 384.569 494.71 384.875 494.39 384.931L494.388 384.932L493.322 385.117C493.002 385.172 492.699 384.958 492.644 384.638C492.589 384.319 492.803 384.015 493.122 383.96L493.131 383.958Z" fill="white"/>
<path d="M496.598 383.269L497.63 383.023L497.64 383.02C497.959 382.944 498.279 383.142 498.355 383.461C498.431 383.781 498.235 384.101 497.915 384.178L497.914 384.178L496.861 384.426C496.542 384.501 496.224 384.303 496.149 383.984C496.074 383.665 496.271 383.346 496.59 383.271L496.598 383.269Z" fill="white"/>
<path d="M500.024 382.382L501.043 382.08L501.051 382.077C501.369 381.983 501.703 382.165 501.797 382.482C501.891 382.801 501.709 383.134 501.392 383.229L501.39 383.229L500.353 383.533C500.036 383.626 499.704 383.444 499.611 383.126C499.518 382.809 499.7 382.476 500.017 382.384L500.024 382.382Z" fill="white"/>
<path d="M503.402 381.316L504.406 380.965L504.414 380.962C504.73 380.852 505.075 381.019 505.185 381.335C505.296 381.651 505.129 381.997 504.813 382.107L504.812 382.108L503.791 382.461C503.476 382.57 503.132 382.403 503.023 382.087C502.914 381.772 503.081 381.428 503.396 381.319L503.402 381.316Z" fill="white"/>
<path d="M506.731 380.094L507.72 379.702L507.727 379.699C508.039 379.575 508.392 379.728 508.515 380.04C508.639 380.353 508.488 380.705 508.175 380.829L507.173 381.229C506.861 381.354 506.506 381.202 506.382 380.889C506.257 380.576 506.41 380.222 506.722 380.097L506.723 380.096L506.731 380.094Z" fill="white"/>
<path d="M510.011 378.74L510.983 378.31L510.989 378.307C511.294 378.172 511.649 378.31 511.784 378.615C511.919 378.919 511.782 379.275 511.478 379.41L510.495 379.848C510.19 379.984 509.833 379.847 509.697 379.542C509.561 379.237 509.698 378.879 510.003 378.743L510.004 378.743L510.011 378.74Z" fill="white"/>
<path d="M513.237 377.263L514.196 376.797L514.201 376.794C514.498 376.65 514.855 376.774 515 377.071C515.144 377.369 515.021 377.726 514.724 377.87L513.756 378.344C513.458 378.489 513.099 378.366 512.955 378.068C512.809 377.771 512.933 377.412 513.23 377.266L513.231 377.266L513.237 377.263Z" fill="white"/>
<path d="M516.417 375.673L517.362 375.176L517.366 375.174C517.656 375.021 518.014 375.133 518.166 375.423C518.318 375.713 518.208 376.071 517.918 376.223L516.966 376.728C516.675 376.881 516.316 376.77 516.163 376.48C516.009 376.189 516.12 375.83 516.41 375.676L516.412 375.676L516.417 375.673Z" fill="white"/>
<path d="M519.547 373.987L520.478 373.463L520.482 373.461C520.765 373.302 521.123 373.403 521.282 373.686C521.44 373.97 521.341 374.328 521.058 374.487L520.121 375.016C519.838 375.176 519.479 375.076 519.319 374.793C519.158 374.509 519.258 374.149 519.542 373.989L519.543 373.988L519.547 373.987Z" fill="white"/>
<path d="M522.637 372.218L523.557 371.675L523.56 371.673C523.837 371.509 524.194 371.601 524.358 371.879C524.521 372.156 524.431 372.513 524.153 372.677L523.229 373.227C522.951 373.392 522.593 373.3 522.428 373.022C522.263 372.744 522.355 372.386 522.632 372.221L522.634 372.22L522.637 372.218Z" fill="white"/>
<path d="M525.693 370.386L526.603 369.827L526.605 369.825C526.877 369.658 527.233 369.743 527.4 370.016C527.567 370.288 527.483 370.643 527.211 370.81L526.298 371.375C526.026 371.544 525.669 371.459 525.501 371.186C525.332 370.914 525.417 370.556 525.689 370.388L525.691 370.388L525.693 370.386Z" fill="white"/>
<path d="M528.72 368.504L529.625 367.931C529.892 367.761 530.246 367.839 530.416 368.107C530.586 368.374 530.507 368.728 530.241 368.899L529.334 369.476C529.066 369.647 528.712 369.568 528.541 369.3C528.371 369.032 528.45 368.676 528.718 368.506L528.719 368.505L528.72 368.504Z" fill="white"/>
<path d="M531.729 366.584L532.628 366.003C532.892 365.832 533.243 365.908 533.414 366.171C533.585 366.435 533.51 366.786 533.247 366.957L532.347 367.542C532.083 367.713 531.73 367.638 531.559 367.374C531.388 367.11 531.463 366.757 531.727 366.586L531.729 366.584Z" fill="white"/>
<path d="M534.723 364.641L535.621 364.055C535.881 363.884 536.23 363.958 536.4 364.218C536.57 364.479 536.498 364.828 536.238 364.998L535.341 365.587C535.08 365.758 534.731 365.685 534.559 365.424C534.388 365.163 534.461 364.813 534.722 364.642L534.723 364.641Z" fill="white"/>
<path d="M537.714 362.686L538.611 362.098C538.869 361.93 539.215 362.002 539.384 362.261C539.552 362.519 539.481 362.864 539.223 363.033L538.328 363.622C538.069 363.793 537.722 363.721 537.553 363.463C537.383 363.204 537.454 362.857 537.712 362.687L537.714 362.686Z" fill="white"/>
<path d="M540.707 360.73L541.607 360.146C541.863 359.979 542.205 360.052 542.372 360.309C542.538 360.566 542.466 360.908 542.209 361.074L541.313 361.661C541.056 361.829 540.713 361.757 540.545 361.501C540.377 361.244 540.449 360.9 540.705 360.732L540.707 360.73Z" fill="white"/>
<path d="M543.71 358.788L544.615 358.21C544.87 358.047 545.209 358.121 545.372 358.377C545.535 358.632 545.46 358.972 545.205 359.135L544.304 359.714C544.049 359.879 543.709 359.806 543.544 359.551C543.379 359.295 543.452 358.955 543.707 358.79L543.71 358.788Z" fill="white"/>
<path d="M546.733 356.871L547.645 356.302C547.899 356.143 548.235 356.222 548.393 356.476C548.552 356.731 548.474 357.067 548.219 357.226L548.219 357.226L547.313 357.794L547.311 357.796C547.056 357.956 546.72 357.878 546.56 357.623C546.4 357.368 546.477 357.031 546.732 356.871L546.733 356.871Z" fill="white"/>
<path d="M549.784 354.996L550.707 354.444C550.958 354.293 551.284 354.375 551.435 354.627C551.584 354.878 551.504 355.202 551.255 355.354L551.253 355.356L550.34 355.912L550.337 355.913C550.085 356.067 549.755 355.987 549.602 355.734C549.448 355.481 549.528 355.152 549.78 354.998L549.784 354.996Z" fill="white"/>
<path d="M552.872 353.176L553.807 352.642C554.054 352.501 554.369 352.587 554.511 352.835C554.651 353.081 554.567 353.395 554.322 353.537L554.319 353.539L553.395 354.077L553.392 354.079C553.143 354.224 552.825 354.14 552.68 353.891C552.536 353.642 552.62 353.323 552.868 353.178L552.872 353.176Z" fill="white"/>
<path d="M556.002 351.422L556.949 350.911C557.192 350.779 557.496 350.87 557.628 351.114C557.758 351.357 557.669 351.659 557.428 351.792L557.424 351.794L556.489 352.309L556.485 352.311C556.24 352.445 555.933 352.356 555.798 352.111C555.664 351.866 555.753 351.558 555.998 351.424L556.002 351.422Z" fill="white"/>
<path d="M559.178 349.751L560.145 349.271C560.385 349.152 560.677 349.25 560.796 349.491C560.914 349.731 560.818 350.021 560.58 350.142L560.573 350.145L559.623 350.626L559.617 350.629C559.375 350.751 559.08 350.654 558.958 350.412C558.835 350.17 558.932 349.875 559.174 349.752L559.178 349.751Z" fill="white"/>
<path d="M562.432 348.213L563.429 347.791C563.669 347.69 563.946 347.802 564.047 348.042C564.148 348.281 564.037 348.556 563.8 348.659L563.79 348.663L562.816 349.084L562.806 349.089C562.565 349.193 562.285 349.082 562.181 348.841C562.077 348.599 562.187 348.319 562.429 348.214L562.432 348.213Z" fill="white"/>
<path d="M565.8 346.903L566.834 346.572C567.074 346.495 567.331 346.628 567.408 346.868C567.484 347.107 567.354 347.362 567.116 347.441L567.102 347.446L566.098 347.777L566.084 347.781C565.842 347.861 565.582 347.729 565.502 347.487C565.423 347.245 565.554 346.985 565.796 346.905L565.8 346.903Z" fill="white"/>
<path d="M569.294 345.939L570.367 345.737C570.606 345.692 570.837 345.85 570.882 346.09C570.927 346.328 570.771 346.558 570.534 346.605L570.515 346.608L569.48 346.812L569.462 346.815C569.22 346.863 568.986 346.705 568.939 346.463C568.891 346.222 569.049 345.987 569.29 345.94L569.294 345.939Z" fill="white"/>
<path d="M572.901 345.458L573.994 345.428C574.23 345.422 574.425 345.607 574.432 345.843C574.438 346.077 574.255 346.273 574.021 346.281L573.998 346.282L572.95 346.319L572.928 346.319C572.69 346.328 572.49 346.142 572.482 345.904C572.473 345.666 572.659 345.466 572.897 345.457L572.901 345.458Z" fill="white"/>
<path d="M576.546 345.608L577.625 345.794C577.849 345.833 577.999 346.046 577.961 346.27C577.922 346.493 577.712 346.643 577.489 346.606L577.465 346.602L576.432 346.433L576.408 346.429C576.181 346.392 576.027 346.178 576.065 345.951C576.102 345.724 576.316 345.57 576.542 345.607L576.546 345.608Z" fill="white"/>
<path d="M580.087 346.467L581.11 346.851C581.315 346.928 581.419 347.157 581.342 347.362C581.266 347.566 581.039 347.67 580.835 347.595L580.815 347.588L579.829 347.227L579.808 347.22C579.6 347.144 579.493 346.913 579.569 346.705C579.645 346.497 579.876 346.39 580.083 346.466L580.087 346.467Z" fill="white"/>
<path d="M583.405 347.953L584.344 348.505C584.522 348.609 584.581 348.837 584.477 349.014C584.374 349.19 584.15 349.25 583.973 349.15L583.957 349.141L583.041 348.621L583.025 348.612C582.842 348.508 582.778 348.276 582.882 348.093C582.985 347.911 583.217 347.846 583.399 347.95C583.401 347.951 583.404 347.952 583.405 347.953Z" fill="white"/>
<path d="M586.428 349.956L587.271 350.642C587.419 350.763 587.442 350.981 587.321 351.129C587.202 351.276 586.988 351.299 586.84 351.183L586.828 351.173L585.998 350.518L585.986 350.509C585.833 350.388 585.807 350.165 585.927 350.012C586.048 349.858 586.27 349.832 586.424 349.953C586.425 349.953 586.427 349.955 586.428 349.956Z" fill="white"/>
<path d="M589.119 352.377L589.856 353.171C589.976 353.301 589.969 353.502 589.84 353.622C589.712 353.741 589.513 353.735 589.392 353.609L589.383 353.6L588.652 352.835L588.643 352.825C588.518 352.695 588.523 352.488 588.653 352.363C588.784 352.238 588.99 352.242 589.115 352.373C589.116 352.374 589.118 352.376 589.119 352.377Z" fill="white"/>
<path d="M591.449 355.136L592.075 356.02C592.169 356.152 592.138 356.334 592.006 356.428C591.875 356.52 591.695 356.491 591.601 356.362L591.594 356.352L590.968 355.496L590.962 355.487C590.864 355.353 590.893 355.165 591.027 355.067C591.161 354.969 591.348 354.998 591.446 355.132C591.447 355.133 591.449 355.135 591.449 355.136Z" fill="white"/>
<path d="M593.399 358.173L593.905 359.13C593.974 359.26 593.925 359.421 593.795 359.49C593.667 359.558 593.508 359.51 593.438 359.383L593.433 359.374L592.922 358.443L592.917 358.434C592.844 358.301 592.893 358.134 593.025 358.062C593.158 357.989 593.324 358.037 593.397 358.17C593.397 358.17 593.398 358.172 593.399 358.173Z" fill="white"/>
<path d="M594.942 361.433L595.321 362.447C595.367 362.571 595.304 362.709 595.181 362.755C595.058 362.801 594.922 362.74 594.874 362.619L594.871 362.61L594.484 361.62L594.48 361.611C594.43 361.484 594.493 361.34 594.62 361.29C594.747 361.24 594.89 361.303 594.94 361.431C594.94 361.431 594.941 361.433 594.942 361.433Z" fill="white"/>
<path d="M596.048 364.864L596.29 365.918C596.316 366.033 596.245 366.147 596.131 366.174C596.017 366.2 595.904 366.13 595.876 366.017L595.874 366.009L595.621 364.975L595.619 364.967C595.59 364.848 595.662 364.729 595.78 364.7C595.899 364.671 596.018 364.743 596.047 364.861C596.048 364.862 596.048 364.864 596.048 364.864Z" fill="white"/>
<path d="M596.687 368.41L596.783 369.487C596.792 369.59 596.717 369.68 596.614 369.689C596.513 369.698 596.424 369.624 596.413 369.523L596.412 369.515L596.302 368.456L596.301 368.447C596.29 368.34 596.367 368.245 596.474 368.234C596.58 368.223 596.676 368.3 596.687 368.407C596.687 368.407 596.687 368.409 596.687 368.41Z" fill="white"/>
<path d="M111.077 473.544L262.931 473.545V444.233L111.077 444.234C114.327 444.233 114.327 473.544 111.077 473.544Z" fill="#91B3FA"/>
<path d="M262.931 466.21V452.795C262.931 448.067 259.93 444.233 256.228 444.233H111.718C108.807 444.233 106.447 441.957 106.447 439.15C106.447 438.297 107.164 437.605 108.048 437.605H265.987C269.609 437.605 275.36 443.097 275.36 449.872V468.607C275.36 474.994 269.777 480.172 266.362 480.172H108.879C107.536 480.172 106.447 479.122 106.447 477.826C106.447 475.461 108.435 473.544 110.887 473.544H257.189C260.36 473.544 262.931 470.261 262.931 466.21Z" fill="url(#paint39_linear_8007_33431)"/>
<path d="M258.72 450.605H116.336C116.139 450.605 115.979 450.445 115.979 450.247C115.979 450.05 116.139 449.89 116.336 449.89H258.72C258.917 449.89 259.077 450.05 259.077 450.247C259.077 450.445 258.917 450.605 258.72 450.605Z" fill="url(#paint40_linear_8007_33431)"/>
<path d="M258.72 454.956H116.336C116.139 454.956 115.979 454.796 115.979 454.598C115.979 454.401 116.139 454.241 116.336 454.241H258.72C258.917 454.241 259.077 454.401 259.077 454.598C259.077 454.795 258.917 454.956 258.72 454.956Z" fill="url(#paint41_linear_8007_33431)"/>
<path d="M258.72 459.306H116.336C116.139 459.306 115.979 459.146 115.979 458.949C115.979 458.751 116.139 458.591 116.336 458.591H258.72C258.917 458.591 259.077 458.751 259.077 458.949C259.077 459.146 258.917 459.306 258.72 459.306Z" fill="url(#paint42_linear_8007_33431)"/>
<path d="M258.72 463.657H116.336C116.139 463.657 115.979 463.497 115.979 463.3C115.979 463.102 116.139 462.942 116.336 462.942H258.72C258.917 462.942 259.077 463.102 259.077 463.3C259.077 463.497 258.917 463.657 258.72 463.657Z" fill="url(#paint43_linear_8007_33431)"/>
<path d="M258.72 468.008H116.336C116.139 468.008 115.979 467.848 115.979 467.651C115.979 467.453 116.139 467.293 116.336 467.293H258.72C258.917 467.293 259.077 467.453 259.077 467.651C259.077 467.848 258.917 468.008 258.72 468.008Z" fill="url(#paint44_linear_8007_33431)"/>
<path d="M260.84 528.836H72.013C68.1913 528.836 65.0933 525.735 65.0933 521.909V486.788C65.0933 482.962 68.1913 479.86 72.013 479.86H260.84C264.662 479.86 267.76 482.962 267.76 486.788V521.909C267.76 525.735 264.662 528.836 260.84 528.836Z" fill="url(#paint45_linear_8007_33431)"/>
<path d="M109.464 523.207H90.3404C89.0465 523.207 87.9976 522.157 87.9976 520.862V487.834C87.9976 486.539 89.0465 485.488 90.3404 485.488H109.464C110.758 485.488 111.807 486.539 111.807 487.834V520.862C111.807 522.157 110.758 523.207 109.464 523.207Z" fill="#7D97F4"/>
<path d="M122.336 523.207H117.214C116.161 523.207 115.309 522.353 115.309 521.3V487.396C115.309 486.342 116.162 485.488 117.214 485.488H122.336C123.389 485.488 124.241 486.342 124.241 487.396V521.3C124.241 522.353 123.388 523.207 122.336 523.207Z" fill="#7D97F4"/>
<path d="M298.417 514.954C289.602 514.954 285.702 514.197 283.958 513.507C284.297 514.956 285.586 516.1 287.215 516.1H318.399C319.45 516.1 320.112 515.093 319.861 514.182C316.307 514.469 308.757 514.954 298.417 514.954Z" fill="url(#paint46_linear_8007_33431)"/>
<path d="M319.861 514.182C319.811 513.999 319.736 513.818 319.606 513.651C317.231 510.615 312.459 505.846 305.968 505.938C296.665 506.069 293.587 507.003 286.539 506.006C286.264 505.967 285.998 506.125 285.906 506.387L284.011 511.781C283.833 512.37 283.83 512.959 283.958 513.507C285.701 514.197 289.601 514.954 298.416 514.954C308.757 514.954 316.307 514.469 319.861 514.182Z" fill="url(#paint47_linear_8007_33431)"/>
<path d="M288.329 499.789L286.276 506.072C286.276 506.072 291.063 508.137 295.232 506.403L296.185 501.084L288.329 499.789Z" fill="url(#paint48_linear_8007_33431)"/>
<path d="M241.916 416.987C242.043 416.839 242.233 416.761 242.428 416.777C246.763 417.139 295.378 421.294 305.719 426.168C316.135 431.077 298.328 497.465 296.966 502.481C296.911 502.682 296.761 502.837 296.563 502.9C295.669 503.185 292.878 503.776 287.871 502.309C287.586 502.225 287.405 501.948 287.442 501.653C288.108 496.274 293.709 449.614 289.229 438.257C289.151 438.06 288.973 437.923 288.765 437.89L233.027 428.762C232.559 428.686 232.355 428.126 232.664 427.766L241.916 416.987Z" fill="url(#paint49_linear_8007_33431)"/>
<path d="M352.526 510.366C345.654 515.893 342.142 517.752 340.353 518.309C341.52 519.221 343.237 519.3 344.507 518.279L368.816 498.724C369.635 498.066 369.525 496.869 368.762 496.32C366.169 498.771 360.586 503.882 352.526 510.366Z" fill="url(#paint50_linear_8007_33431)"/>
<path d="M368.762 496.32C368.608 496.209 368.438 496.115 368.232 496.068C364.49 495.202 357.801 494.494 352.798 498.635C345.469 504.702 343.527 507.583 337.077 511.356L339.319 516.937C339.549 517.506 339.912 517.965 340.353 518.309C342.142 517.751 345.654 515.893 352.525 510.366C360.586 503.882 366.169 498.771 368.762 496.32Z" fill="url(#paint51_linear_8007_33431)"/>
<path d="M331.833 501.311C332.323 501.758 337.077 511.356 337.077 511.356C337.077 511.356 342.369 510.21 343.448 506.857L338.686 498.194L331.833 501.311Z" fill="url(#paint52_linear_8007_33431)"/>
<path d="M210.333 416.31C210.333 416.31 208.613 420.453 208.684 425.958C208.781 433.572 214.895 439.751 222.491 440.13L284.879 442.978C286.197 443.039 287.311 443.951 287.641 445.23C289.107 450.907 296.273 468.341 331.301 503.128C332.233 504.054 333.685 504.211 334.795 503.51L339.781 500.356C340.305 500.025 340.472 499.338 340.159 498.803L303.834 436.701C301.926 433.549 298.859 431.272 295.292 430.359L242.118 416.752L210.333 416.31Z" fill="url(#paint53_linear_8007_33431)"/>
<path d="M282.709 320.695C282.709 320.695 265.132 331.132 258.318 336.863L272.403 344.73C272.403 344.73 280.013 335.929 287.264 332.261L282.709 320.695Z" fill="url(#paint54_linear_8007_33431)"/>
<path d="M210.246 416.892C215.466 417.578 238.916 420.498 250.62 419.151C250.985 419.109 251.295 418.871 251.436 418.533C253.165 414.394 264.425 387.859 272.434 379.137C272.868 378.664 273.626 378.709 274.005 379.228C277.118 383.499 290.894 400.253 317.357 403.197C317.797 403.246 318.22 403.001 318.401 402.596L319.416 400.326C319.639 399.825 319.43 399.237 318.939 398.994C314.483 396.779 294.367 386.099 287.649 370.625C280.076 353.182 277.035 345.742 270.146 341.191C266.363 338.693 263.919 336.892 262.483 335.776C261.416 334.947 259.949 334.874 258.805 335.594C250.395 340.885 217.935 364.338 209.37 415.71C209.275 416.28 209.674 416.816 210.246 416.892Z" fill="url(#paint55_linear_8007_33431)"/>
<path d="M316.414 397.718L319.717 396.836L330.277 394.388C331.548 394.093 332.884 394.319 333.989 395.014L343.068 400.733L317.994 400.691C317.733 399.861 317.117 398.815 316.414 397.718Z" fill="url(#paint56_linear_8007_33431)"/>
<path d="M299.865 313.041C299.914 313.382 295.364 335.705 295.364 335.705L282.688 332.833L283.86 311.034C283.86 311.034 299.042 307.331 299.865 313.041Z" fill="url(#paint57_linear_8007_33431)"/>
<path d="M286.712 315.892L285.197 327.319C285.177 327.466 285.177 327.611 285.198 327.757C285.326 328.653 285.991 331.702 289.066 330.83C291.857 330.039 294.415 329.358 296.182 329.899C296.975 330.142 297.454 330.947 297.288 331.761C296.874 333.789 295.856 338.342 294.37 342.162C294.068 342.938 293.22 343.345 292.422 343.112C290.018 342.41 284.989 340.788 281.248 338.535C280.741 338.229 280.439 337.677 280.464 337.085C280.586 334.201 280.923 325.431 280.639 322.973C280.373 320.666 277.545 319.284 276.316 318.788C275.913 318.626 275.597 318.308 275.436 317.904C274.867 316.476 274.083 313.173 278.241 311.819C279.112 311.536 279.57 310.596 279.261 309.734C278.645 308.017 278.385 305.397 281.602 303.954C284.872 302.487 287.314 304.232 288.633 305.65C289.166 306.224 290.021 306.311 290.683 305.893C291.059 305.655 291.545 305.576 292.131 305.942C292.921 306.434 293.967 306.099 294.374 305.261C295.157 303.652 296.753 301.929 299.955 302.478C305.635 303.452 306.279 309.754 304.78 313.446C303.281 317.139 297.183 315.733 294.123 313.871C291.797 312.456 288.78 313.939 287.467 314.732C287.051 314.982 286.775 315.41 286.712 315.892Z" fill="white"/>
<path d="M280.747 326.888C280.747 326.888 282.464 320.592 280.064 318.989C277.665 317.386 274.112 318.218 274.894 322.961C275.867 328.86 280.747 326.888 280.747 326.888Z" fill="url(#paint58_linear_8007_33431)"/>
<path d="M306.552 405.301C306.593 405.303 306.634 405.304 306.675 405.303L360.241 405.25C361.565 405.249 362.637 404.175 362.636 402.852C362.634 401.528 361.556 400.435 360.235 400.458L306.67 400.512C305.345 400.513 304.273 401.586 304.275 402.91C304.276 404.192 305.285 405.238 306.552 405.301Z" fill="url(#paint59_linear_8007_33431)"/>
<path d="M380.985 352.783C380.966 352.819 380.948 352.856 380.931 352.893L358.393 401.542C357.835 402.745 358.356 404.171 359.555 404.728C360.754 405.284 362.2 404.766 362.735 403.558L385.273 354.909C385.831 353.706 385.311 352.28 384.111 351.723C382.949 351.184 381.576 351.659 380.985 352.783Z" fill="url(#paint60_linear_8007_33431)"/>
<path d="M330.403 407.992C330.169 408.962 307.818 492.884 302.152 514.16C301.498 516.612 303.323 519.019 305.829 519.019C307.577 519.019 309.1 517.814 309.524 516.095L334.334 415.386L330.403 407.992Z" fill="#7D97F4"/>
<path d="M342.642 407.992C342.876 408.962 365.227 492.884 370.894 514.16C371.547 516.612 369.723 519.019 367.216 519.019C365.468 519.019 363.945 517.814 363.522 516.095L338.711 415.386L342.642 407.992Z" fill="#7D97F4"/>
<path d="M343.573 405.248H329.653V416.439C329.653 418.048 330.94 419.352 332.528 419.352H334.437V444.49C334.437 445.708 335.411 446.695 336.613 446.695C337.815 446.695 338.789 445.708 338.789 444.49V419.352H339.758C341.865 419.352 343.573 417.622 343.573 415.487L343.573 405.248Z" fill="#7D97F4"/>
<path d="M295.427 402.56H373.153C374.239 402.56 375.188 403.304 375.459 404.37L376.544 408.63C376.935 410.163 375.787 411.656 374.224 411.647L294.469 411.182C292.923 411.173 291.795 409.698 292.173 408.179L293.117 404.383C293.383 403.311 294.335 402.56 295.427 402.56Z" fill="#91B3FA"/>
<defs>
<linearGradient id="paint0_linear_8007_33431" x1="723.482" y1="265.142" x2="-33.8886" y2="282.071" gradientUnits="userSpaceOnUse">
<stop stop-color="#DAE3FE"/>
<stop offset="1" stop-color="#E9EFFD"/>
</linearGradient>
<linearGradient id="paint1_linear_8007_33431" x1="649.016" y1="399.841" x2="802.591" y2="399.841" gradientUnits="userSpaceOnUse">
<stop stop-color="#DAE3FE"/>
<stop offset="1" stop-color="#E9EFFD"/>
</linearGradient>
<linearGradient id="paint2_linear_8007_33431" x1="142.688" y1="259.802" x2="260.974" y2="259.802" gradientUnits="userSpaceOnUse">
<stop stop-color="#DAE3FE"/>
<stop offset="1" stop-color="#E9EFFD"/>
</linearGradient>
<linearGradient id="paint3_linear_8007_33431" x1="409.594" y1="524.598" x2="460.619" y2="53.1625" gradientUnits="userSpaceOnUse">
<stop stop-color="#09005D"/>
<stop offset="1" stop-color="#1A0F91"/>
</linearGradient>
<linearGradient id="paint4_linear_8007_33431" x1="650.184" y1="184.492" x2="214.338" y2="464.359" gradientUnits="userSpaceOnUse">
<stop stop-color="#FE7062"/>
<stop offset="1" stop-color="#FF928E"/>
</linearGradient>
<linearGradient id="paint5_linear_8007_33431" x1="235.464" y1="302.637" x2="601.653" y2="302.637" gradientUnits="userSpaceOnUse">
<stop stop-color="#E1473D"/>
<stop offset="1" stop-color="#E9605A"/>
</linearGradient>
<linearGradient id="paint6_linear_8007_33431" x1="418.672" y1="184.1" x2="435.68" y2="440.351" gradientUnits="userSpaceOnUse">
<stop stop-color="#09005D"/>
<stop offset="1" stop-color="#1A0F91"/>
</linearGradient>
<linearGradient id="paint7_linear_8007_33431" x1="659.935" y1="464.87" x2="695.196" y2="464.87" gradientUnits="userSpaceOnUse">
<stop stop-color="#FF928E"/>
<stop offset="1" stop-color="#FEB3B1"/>
</linearGradient>
<linearGradient id="paint8_linear_8007_33431" x1="681.51" y1="487.872" x2="676.311" y2="567.487" gradientUnits="userSpaceOnUse">
<stop stop-color="#4042E2"/>
<stop offset="1" stop-color="#4F52FF"/>
</linearGradient>
<linearGradient id="paint9_linear_8007_33431" x1="619.265" y1="467.05" x2="692.94" y2="467.05" gradientUnits="userSpaceOnUse">
<stop stop-color="#FF928E"/>
<stop offset="1" stop-color="#FEB3B1"/>
</linearGradient>
<linearGradient id="paint10_linear_8007_33431" x1="689.794" y1="484.702" x2="717.429" y2="350.401" gradientUnits="userSpaceOnUse">
<stop stop-color="#4042E2"/>
<stop offset="1" stop-color="#4F52FF"/>
</linearGradient>
<linearGradient id="paint11_linear_8007_33431" x1="631.461" y1="484.605" x2="626.263" y2="564.22" gradientUnits="userSpaceOnUse">
<stop stop-color="#4042E2"/>
<stop offset="1" stop-color="#4F52FF"/>
</linearGradient>
<linearGradient id="paint12_linear_8007_33431" x1="897.549" y1="178.524" x2="741.946" y2="350.027" gradientUnits="userSpaceOnUse">
<stop stop-color="#E1473D"/>
<stop offset="1" stop-color="#E9605A"/>
</linearGradient>
<linearGradient id="paint13_linear_8007_33431" x1="697.289" y1="336.697" x2="708.272" y2="388.013" gradientUnits="userSpaceOnUse">
<stop stop-color="#FF928E"/>
<stop offset="1" stop-color="#FEB3B1"/>
</linearGradient>
<linearGradient id="paint14_linear_8007_33431" x1="685.216" y1="326.015" x2="714.56" y2="324.955" gradientUnits="userSpaceOnUse">
<stop stop-color="#FF928E"/>
<stop offset="1" stop-color="#FEB3B1"/>
</linearGradient>
<linearGradient id="paint15_linear_8007_33431" x1="689.224" y1="445.739" x2="711.885" y2="413.555" gradientUnits="userSpaceOnUse">
<stop stop-color="#FF928E"/>
<stop offset="1" stop-color="#FEB3B1"/>
</linearGradient>
<linearGradient id="paint16_linear_8007_33431" x1="526.137" y1="310.32" x2="657.843" y2="392.231" gradientUnits="userSpaceOnUse">
<stop stop-color="#09005D"/>
<stop offset="1" stop-color="#1A0F91"/>
</linearGradient>
<linearGradient id="paint17_linear_8007_33431" x1="597.836" y1="356.951" x2="725.341" y2="445.269" gradientUnits="userSpaceOnUse">
<stop stop-color="#09005D"/>
<stop offset="1" stop-color="#1A0F91"/>
</linearGradient>
<linearGradient id="paint18_linear_8007_33431" x1="647.782" y1="374.835" x2="608.777" y2="444.178" gradientUnits="userSpaceOnUse">
<stop stop-color="#4042E2"/>
<stop offset="1" stop-color="#4F52FF"/>
</linearGradient>
<linearGradient id="paint19_linear_8007_33431" x1="685.363" y1="330.065" x2="714.706" y2="329.005" gradientUnits="userSpaceOnUse">
<stop stop-color="#FF928E"/>
<stop offset="1" stop-color="#FEB3B1"/>
</linearGradient>
<linearGradient id="paint20_linear_8007_33431" x1="227.454" y1="201.18" x2="270.671" y2="312.284" gradientUnits="userSpaceOnUse">
<stop stop-color="#4042E2"/>
<stop offset="1" stop-color="#4F52FF"/>
</linearGradient>
<linearGradient id="paint21_linear_8007_33431" x1="188.948" y1="125.712" x2="228.608" y2="187.256" gradientUnits="userSpaceOnUse">
<stop stop-color="#4042E2"/>
<stop offset="1" stop-color="#4F52FF"/>
</linearGradient>
<linearGradient id="paint22_linear_8007_33431" x1="201.185" y1="132.499" x2="177.091" y2="264.155" gradientUnits="userSpaceOnUse">
<stop stop-color="#09005D"/>
<stop offset="1" stop-color="#1A0F91"/>
</linearGradient>
<linearGradient id="paint23_linear_8007_33431" x1="823.058" y1="122.479" x2="511.076" y2="278.828" gradientUnits="userSpaceOnUse">
<stop stop-color="#4042E2"/>
<stop offset="1" stop-color="#4F52FF"/>
</linearGradient>
<linearGradient id="paint24_linear_8007_33431" x1="814.56" y1="105.519" x2="502.577" y2="261.868" gradientUnits="userSpaceOnUse">
<stop stop-color="#4042E2"/>
<stop offset="1" stop-color="#4F52FF"/>
</linearGradient>
<linearGradient id="paint25_linear_8007_33431" x1="805.969" y1="88.3768" x2="493.984" y2="244.727" gradientUnits="userSpaceOnUse">
<stop stop-color="#4042E2"/>
<stop offset="1" stop-color="#4F52FF"/>
</linearGradient>
<linearGradient id="paint26_linear_8007_33431" x1="705.813" y1="28.7492" x2="667.023" y2="147.11" gradientUnits="userSpaceOnUse">
<stop stop-color="#4042E2"/>
<stop offset="1" stop-color="#4F52FF"/>
</linearGradient>
<linearGradient id="paint27_linear_8007_33431" x1="597.705" y1="59.4214" x2="761.953" y2="59.4214" gradientUnits="userSpaceOnUse">
<stop stop-color="#4042E2"/>
<stop offset="1" stop-color="#4F52FF"/>
</linearGradient>
<linearGradient id="paint28_linear_8007_33431" x1="318.917" y1="458.394" x2="318.276" y2="459.195" gradientUnits="userSpaceOnUse">
<stop stop-color="#CB236D"/>
<stop offset="1" stop-color="#4C246D"/>
</linearGradient>
<linearGradient id="paint29_linear_8007_33431" x1="506.68" y1="157.327" x2="171.755" y2="575.972" gradientUnits="userSpaceOnUse">
<stop stop-color="#4042E2"/>
<stop offset="1" stop-color="#4F52FF"/>
</linearGradient>
<linearGradient id="paint30_linear_8007_33431" x1="646.976" y1="99.5779" x2="380.889" y2="660.331" gradientUnits="userSpaceOnUse">
<stop stop-color="#09005D"/>
<stop offset="1" stop-color="#1A0F91"/>
</linearGradient>
<linearGradient id="paint31_linear_8007_33431" x1="272.231" y1="371.931" x2="64.0629" y2="632.199" gradientUnits="userSpaceOnUse">
<stop stop-color="#4042E2"/>
<stop offset="1" stop-color="#4F52FF"/>
</linearGradient>
<linearGradient id="paint32_linear_8007_33431" x1="552.43" y1="188.548" x2="209.717" y2="616.928" gradientUnits="userSpaceOnUse">
<stop stop-color="#4042E2"/>
<stop offset="1" stop-color="#4F52FF"/>
</linearGradient>
<linearGradient id="paint33_linear_8007_33431" x1="488.029" y1="348.591" x2="564.514" y2="232.58" gradientUnits="userSpaceOnUse">
<stop stop-color="#FF928E"/>
<stop offset="1" stop-color="#FEB3B1"/>
</linearGradient>
<linearGradient id="paint34_linear_8007_33431" x1="480.211" y1="343.437" x2="556.696" y2="227.425" gradientUnits="userSpaceOnUse">
<stop stop-color="#FF928E"/>
<stop offset="1" stop-color="#FEB3B1"/>
</linearGradient>
<linearGradient id="paint35_linear_8007_33431" x1="374.989" y1="222.871" x2="342.868" y2="361.517" gradientUnits="userSpaceOnUse">
<stop stop-color="#FF928E"/>
<stop offset="1" stop-color="#FEB3B1"/>
</linearGradient>
<linearGradient id="paint36_linear_8007_33431" x1="345.148" y1="158.804" x2="377.739" y2="250.097" gradientUnits="userSpaceOnUse">
<stop stop-color="#FF928E"/>
<stop offset="1" stop-color="#FEB3B1"/>
</linearGradient>
<linearGradient id="paint37_linear_8007_33431" x1="353.708" y1="193.369" x2="412.072" y2="268.427" gradientUnits="userSpaceOnUse">
<stop stop-color="#09005D"/>
<stop offset="1" stop-color="#1A0F91"/>
</linearGradient>
<linearGradient id="paint38_linear_8007_33431" x1="324.983" y1="166.003" x2="357.575" y2="257.296" gradientUnits="userSpaceOnUse">
<stop stop-color="#FF928E"/>
<stop offset="1" stop-color="#FEB3B1"/>
</linearGradient>
<linearGradient id="paint39_linear_8007_33431" x1="195.278" y1="517.376" x2="211.224" y2="712.767" gradientUnits="userSpaceOnUse">
<stop stop-color="#4042E2"/>
<stop offset="1" stop-color="#4F52FF"/>
</linearGradient>
<linearGradient id="paint40_linear_8007_33431" x1="115.979" y1="450.247" x2="259.077" y2="450.247" gradientUnits="userSpaceOnUse">
<stop stop-color="#DAE3FE"/>
<stop offset="1" stop-color="#E9EFFD"/>
</linearGradient>
<linearGradient id="paint41_linear_8007_33431" x1="115.979" y1="454.598" x2="259.077" y2="454.598" gradientUnits="userSpaceOnUse">
<stop stop-color="#DAE3FE"/>
<stop offset="1" stop-color="#E9EFFD"/>
</linearGradient>
<linearGradient id="paint42_linear_8007_33431" x1="115.979" y1="458.949" x2="259.077" y2="458.949" gradientUnits="userSpaceOnUse">
<stop stop-color="#DAE3FE"/>
<stop offset="1" stop-color="#E9EFFD"/>
</linearGradient>
<linearGradient id="paint43_linear_8007_33431" x1="115.979" y1="463.3" x2="259.077" y2="463.3" gradientUnits="userSpaceOnUse">
<stop stop-color="#DAE3FE"/>
<stop offset="1" stop-color="#E9EFFD"/>
</linearGradient>
<linearGradient id="paint44_linear_8007_33431" x1="115.979" y1="467.65" x2="259.077" y2="467.65" gradientUnits="userSpaceOnUse">
<stop stop-color="#DAE3FE"/>
<stop offset="1" stop-color="#E9EFFD"/>
</linearGradient>
<linearGradient id="paint45_linear_8007_33431" x1="304.508" y1="335.948" x2="226.624" y2="430.717" gradientUnits="userSpaceOnUse">
<stop stop-color="#4042E2"/>
<stop offset="1" stop-color="#4F52FF"/>
</linearGradient>
<linearGradient id="paint46_linear_8007_33431" x1="299.599" y1="459.883" x2="301.253" y2="498.108" gradientUnits="userSpaceOnUse">
<stop stop-color="#09005D"/>
<stop offset="1" stop-color="#1A0F91"/>
</linearGradient>
<linearGradient id="paint47_linear_8007_33431" x1="311.661" y1="445.584" x2="301.815" y2="513.536" gradientUnits="userSpaceOnUse">
<stop stop-color="#4042E2"/>
<stop offset="1" stop-color="#4F52FF"/>
</linearGradient>
<linearGradient id="paint48_linear_8007_33431" x1="286.276" y1="503.443" x2="296.186" y2="503.443" gradientUnits="userSpaceOnUse">
<stop stop-color="#FF928E"/>
<stop offset="1" stop-color="#FEB3B1"/>
</linearGradient>
<linearGradient id="paint49_linear_8007_33431" x1="303.482" y1="402.2" x2="229.651" y2="522.104" gradientUnits="userSpaceOnUse">
<stop stop-color="#09005D"/>
<stop offset="1" stop-color="#1A0F91"/>
</linearGradient>
<linearGradient id="paint50_linear_8007_33431" x1="352.696" y1="457.586" x2="354.35" y2="495.811" gradientUnits="userSpaceOnUse">
<stop stop-color="#09005D"/>
<stop offset="1" stop-color="#1A0F91"/>
</linearGradient>
<linearGradient id="paint51_linear_8007_33431" x1="360.322" y1="452.635" x2="350.476" y2="520.587" gradientUnits="userSpaceOnUse">
<stop stop-color="#4042E2"/>
<stop offset="1" stop-color="#4F52FF"/>
</linearGradient>
<linearGradient id="paint52_linear_8007_33431" x1="331.834" y1="504.775" x2="343.448" y2="504.775" gradientUnits="userSpaceOnUse">
<stop stop-color="#FF928E"/>
<stop offset="1" stop-color="#FEB3B1"/>
</linearGradient>
<linearGradient id="paint53_linear_8007_33431" x1="212.97" y1="405.785" x2="312.028" y2="470.806" gradientUnits="userSpaceOnUse">
<stop stop-color="#09005D"/>
<stop offset="1" stop-color="#1A0F91"/>
</linearGradient>
<linearGradient id="paint54_linear_8007_33431" x1="289.253" y1="335.601" x2="262.22" y2="328.94" gradientUnits="userSpaceOnUse">
<stop stop-color="#FF928E"/>
<stop offset="1" stop-color="#FEB3B1"/>
</linearGradient>
<linearGradient id="paint55_linear_8007_33431" x1="410.873" y1="45.4622" x2="349.946" y2="194.068" gradientUnits="userSpaceOnUse">
<stop stop-color="#09005D"/>
<stop offset="1" stop-color="#1A0F91"/>
</linearGradient>
<linearGradient id="paint56_linear_8007_33431" x1="316.414" y1="397.498" x2="343.068" y2="397.498" gradientUnits="userSpaceOnUse">
<stop stop-color="#FF928E"/>
<stop offset="1" stop-color="#FEB3B1"/>
</linearGradient>
<linearGradient id="paint57_linear_8007_33431" x1="297.976" y1="319.91" x2="269.151" y2="331.807" gradientUnits="userSpaceOnUse">
<stop stop-color="#FF928E"/>
<stop offset="1" stop-color="#FEB3B1"/>
</linearGradient>
<linearGradient id="paint58_linear_8007_33431" x1="288.597" y1="314.141" x2="275.188" y2="325.51" gradientUnits="userSpaceOnUse">
<stop stop-color="#FF928E"/>
<stop offset="1" stop-color="#FEB3B1"/>
</linearGradient>
<linearGradient id="paint59_linear_8007_33431" x1="-5433.04" y1="-5747.27" x2="-5338.26" y2="-5646.06" gradientUnits="userSpaceOnUse">
<stop stop-color="#09005D"/>
<stop offset="1" stop-color="#1A0F91"/>
</linearGradient>
<linearGradient id="paint60_linear_8007_33431" x1="8371.5" y1="-2262.85" x2="8239.79" y2="-2219.74" gradientUnits="userSpaceOnUse">
<stop stop-color="#09005D"/>
<stop offset="1" stop-color="#1A0F91"/>
</linearGradient>
</defs>
</svg>
